<?xml version="1.0" encoding="UTF-8"?>
<svg id="Calque_1" data-name="Calque 1" xmlns="http://www.w3.org/2000/svg" viewBox="0 0 31.53 31.53">
  <defs>
    <style>
      .cls-1 {
        fill: #010101;
      }

      .cls-2 {
        fill: #b8cca0;
      }
    </style>
  </defs>
  <rect class="cls-2" width="31.53" height="31.53" rx="8" ry="8"/>
  <g>
    <path class="cls-1" d="M14.26,4.76c-.22.04-.51.14-.65.24-.23.15-.31.16-.62.06-.21-.07-.5-.09-.7-.06-.22.04-.45,0-.68-.09-.54-.23-1.17-.19-1.6.1-.4.27-.67.56-.8.84-.06.12-.28.26-.67.37-.65.2-.82.43-.65.88.07.17.06.28,0,.35-.05.05-.09.33-.09.62,0,.49-.03.53-.35.74-.33.21-.36.22-.74.08-.81-.31-1.9-.12-2.5.44-.92.86-.74,2.52.69,6.37.14.36.29.75.34.85s.13.36.2.57c.06.21.43,1.05.81,1.87.39.81.69,1.54.66,1.62-.03.07-.3.17-.62.24-.63.12-.96.42-.96.85,0,.36.09.44.64.58.27.08.49.18.49.25s-.12.34-.28.61c-.33.57-.35.72-.1.85.34.18.6.1.93-.27.17-.19.31-.38.31-.42,0-.03.1-.19.24-.34l.23-.27.77.12c.43.07.84.15.94.18s.65.13,1.25.23c1.18.2,5.18.93,6.91,1.26l1.1.22.06.85c.04.47.09.94.12,1.02.09.25.46.3.74.09.22-.15.24-.24.25-.83,0-.37.04-.72.08-.79.05-.07.56-.2,1.14-.3.59-.09,1.33-.25,1.66-.33.46-.12,2.23-.52,2.3-.52,0,0,.04.44.07.97.05.78.09,1,.23,1.1.19.14.69.08.8-.1.04-.06.08-.59.08-1.16,0-.97.02-1.06.19-1.11.13-.03.19-.13.19-.29,0-.13.05-.25.1-.25.07,0,.09-.09.05-.24-.06-.21-.03-.24.2-.24.15,0,.33-.05.41-.09.12-.08.11-.1-.05-.24-.1-.09-.41-.26-.68-.38-.27-.12-.51-.27-.55-.32-.03-.06.37-.53.9-1.06s.93-.99.9-1.04c-.09-.15-.47-.09-.95.15-.48.24-.62.26-.4.04s.37-.77.26-.88q-.1-.1-.66.31l-.31.24.06-.25c.04-.14.09-.31.12-.4.09-.25-.27-.18-.64.1-.28.24-.83.82-1.32,1.42-.3.37-.69,1.15-.62,1.23.05.04.12,0,.19-.09.59-.95.95-1.42,1.46-1.93.33-.33.63-.6.68-.6.04,0,.02.17-.03.38-.06.21-.08.4-.04.44.03.03.24-.11.46-.33.44-.41.59-.38.29.06-.22.32-.44.87-.39.93.03.03.38-.14.79-.38.41-.23.77-.41.79-.38.03.03-.44.53-1.05,1.13-.8.79-1.17,1.21-1.34,1.58-.13.28-.24.56-.24.62,0,.29-1,.44-1.22.18-.07-.08-.55-.27-1.08-.44-.53-.16-1.09-.35-1.25-.43-.68-.3-.91-.35-1.34-.29-.73.1-1.64.14-1.68.07-.06-.09.12-1.27.25-1.57.15-.38.63-1.09.74-1.09.22,0,1.75.47,2.27.7.13.06.47.28.76.5.32.26.62.41.79.41.31,0,.34-.15.04-.23-.26-.06-1.13-.62-1.23-.79-.04-.06-.24-.21-.44-.32-.21-.11-.4-.29-.43-.41s-.11-.28-.2-.39c-.14-.18-.15-.17-.09.18.06.33.04.36-.11.3-.09-.04-.28-.09-.43-.12-.23-.05-.27-.1-.27-.35,0-.76.45-1.9.81-2.06.28-.13.66.02,1.08.43.35.34.58.77,1.15,2.15.38.92.54,1.19.64,1.09.02-.03-.09-.33-.26-.68-.16-.36-.51-1.14-.78-1.73-.46-1.02-.78-1.51-.97-1.51-.05,0-.27-.09-.47-.19-.46-.22-.92-.24-1.5-.07-.23.08-.45.13-.49.13-.05,0-.11.04-.14.08-.04.04.1.04.31,0,.56-.1.36.02-.28.18-.31.07-.65.16-.76.2-.19.07-.19.06,0-.09.1-.09.29-.15.43-.16.17,0,.2-.03.1-.07-.3-.14-.66-.43-.66-.53,0-.06.29-.17.64-.26.36-.09,1-.33,1.44-.55.9-.44.97-.45,1.15-.23.08.09.27.21.44.28.23.09.3.19.3.36s-.05.24-.18.24c-.44,0-.66.29-.33.42.19.08,1.4.08,1.59,0,.26-.09.17-.31-.15-.4-.42-.1-.44-.27-.04-.44.18-.08.4-.25.48-.38.09-.13.22-.25.29-.25.27,0,.37-.35.37-1.29s0-.94-.22-.97-.22-.07-.19-.74c0-.51-.02-.74-.1-.8-.08-.04-.09-.12-.07-.18.08-.11.56-.14.66-.04.09.09,1,.1,1,.02,0-.04-.24-.37-.52-.74s-.52-.76-.52-.86c0-.22-.14-.25-.26-.05-.05.08-.46.24-.92.35-.81.21-1.18.45-.69.45.12,0,.28.07.35.14s.18.14.27.14c.21,0,.59.37.53.52-.05.12-1.22.12-1.35,0-.03-.04-.14-.3-.25-.6-.16-.47-.23-.54-.46-.57-.23-.03-.27,0-.21.12.06.16-.12.38-.59.69-.41.27-.3.06.13-.27.24-.17.38-.33.32-.35-.11-.04-.95.62-.95.75,0,.27.65.11.94-.24.2-.24.37-.18.48.19.09.28.09.36-.05.51-.14.16-.15.24-.06.62.13.53.08.76-.23.83-.14.04-.28.19-.39.43-.14.32-.22.38-.79.57-.34.11-.75.21-.91.21-.15,0-.45.06-.66.12-.35.11-.42.09-.89-.15-.28-.14-.62-.27-.74-.27s-.55-.18-.94-.39c-.39-.22-.89-.44-1.11-.51-.32-.09-.41-.17-.47-.42-.09-.36,0-.53.37-.62.13-.04.41-.17.61-.3.64-.43,2.05-.97,2.91-1.14,1.64-.3,2.48-.69,2.87-1.32.1-.17.19-.42.19-.55,0-.17.07-.27.22-.3.11-.04.32-.18.47-.31.33-.32.35-.89.04-1.35-.18-.27-.28-.32-.62-.35-.33-.03-.44,0-.62.21-.27.28-.42.3-.81.09-.32-.16-.58-.11-.84.17-.17.19-.29.2-1.88.21h-1.69s.05-.47.05-.47c.05-.44-.1-.97-.33-1.11-.15-.1-.75-.14-1.12-.08ZM15.16,5.08s.06.06.12.02c.06-.04.09-.04.05,0-.04.04-.03.13.02.19.1.12.12.37.07.97-.03.32-.1.46-.36.68-.23.2-.27.27-.16.28.09,0,.19-.05.22-.1.04-.06.12-.08.2-.05.17.07.43-.03.37-.14-.03-.04-.12-.05-.21-.02-.09.04-.13.02-.09-.04.07-.1,1.29-.35,1.36-.27.03.02-.05.09-.15.15-.11.06-.2.14-.2.19,0,.16.25.1.44-.1.12-.13.26-.18.44-.15.14.02.28,0,.31-.05.06-.09.61-.1.61,0,0,.04-.09.17-.21.29l-.22.23.33-.07c.18-.04.41-.15.5-.25.2-.21.54-.24.54-.05,0,.07.07.19.15.26.14.11.15.09.09-.18-.05-.24-.03-.36.1-.5.22-.24.41-.23.8.06.33.24.66.31.66.14,0-.06-.07-.09-.14-.09-.26,0-.15-.14.25-.31.49-.24.8-.15.93.23.22.63.09,1.05-.39,1.21-.38.13-.62-.03-.25-.17.27-.1.44-.29.25-.29-.22,0-.74.37-.85.61-.14.33-.3.38-1.27.39-.73,0-.9.03-1.08.19s-.38.2-1.5.24c-.91.04-1.3.09-1.33.16-.04.14-.3.16-.3.03,0-.06.07-.09.14-.09.19,0,.18-.18,0-.26-.2-.08-.27,0-.27.37,0,.44-.38.53-1.14.28-.52-.17-.61-.17-1.1-.04-.31.09-.66.11-.86.08-.36-.07-1.13-.65-1.01-.77.04-.05.13-.02.21.04.16.13.34.07.34-.13,0-.15-.36-.25-.66-.17-.27.07-.95.67-.95.85,0,.19.09.15.35-.16.29-.36.5-.36.71,0,.17.31.86.67,1.28.67.16,0,.31.08.39.19.22.36.58.12.44-.29-.08-.23.13-.31.44-.18.44.2.62.33.58.45-.02.06,0,.11.07.11s.1-.05.1-.09c0-.17.33-.1.45.09.16.27.4.25.4-.03,0-.12.1-.32.23-.44.24-.23.44-.2.44.05,0,.27.33.09.38-.2.03-.15.08-.27.12-.27.04,0,.38.04.76.08.48.05.74.12.89.26.25.23.41.15.41-.19,0-.22.27-.59.42-.59.03,0,.07.12.1.28.04.15.12.28.2.28s.16-.12.2-.28c.03-.16.1-.28.16-.28s.16.12.22.28c.12.32.41.39.41.09,0-.12-.05-.17-.14-.13-.08.04-.14.02-.14-.04,0-.05.16-.11.36-.15.22-.03.47-.17.66-.35.17-.17.33-.27.36-.25.11.11-.18.74-.46.97-.38.32-1.14.67-1.58.73-.9.12-2.21.5-2.89.85-1.97.99-2.06,1.03-2.62,1.09-.4.03-.59,0-.64-.07-.06-.09-.17-.09-.51.03-.55.19-.67.19-1.22,0-.48-.16-1.15-.81-1.26-1.21-.07-.28-.23-.33-.23-.07,0,.31.6,1.08,1.05,1.36.5.3.81.33,2.36.19.55-.06,1.01-.09,1.03-.07.08.07-.62.42-.77.38-.09-.02-.18.02-.21.09-.04.09-.19.11-.58.09-.54-.04-.71.09-.27.2.36.09,1.32-.1,1.61-.34.13-.1.27-.17.29-.15.02.03.07.24.09.45.04.3.11.46.33.63.15.12.41.44.56.72.29.53.53.73.96.83.13.04.49.27.8.51l.56.45-.67.06c-1.2.11-2.46.81-3.74,2.08-1.05,1.04-1.62,1.97-1.99,3.19-.13.44-.06.59.32.59.09,0,.16.04.16.09,0,.21.79.59,1.67.8,1.05.26,3.98.71,4.61.71.35,0,.45-.06.77-.37.29-.3.45-.39.85-.44.27-.04.56-.1.64-.15.12-.07.25-.04.44.1.28.21.53.28,1.7.52.39.08.82.2.98.28.16.08.35.14.43.14.07,0,.12.03.12.08,0,.04-.54.17-1.2.29-.67.12-1.48.28-1.8.35-.54.11-.64.1-1.51-.1-.85-.22-1.53-.35-4.57-.9-.6-.1-1.53-.29-2.08-.43-1.01-.24-2.42-.51-3.69-.71-.39-.07-1.06-.2-1.5-.29-.43-.1-.91-.18-1.06-.18-.31,0-.39-.15-.11-.22.62-.17.72-.17.86.02.22.28,1.03.42,1.75.28.8-.14,1.48-.37,1.48-.48,0-.1-.21-.07-1.4.23-.44.1-.8.18-.81.16-.08-.11-1.25-2.58-1.45-3.07-.66-1.6-1.2-3.04-1.39-3.74-.09-.28-.24-.84-.34-1.22-.26-.91-.45-2.34-.41-2.9.05-.55.34-1.05.72-1.24.25-.13.36-.13.86-.04.32.07.59.13.61.15.02,0-.18.25-.44.52-.27.28-.51.58-.54.67s-.09.17-.14.17-.09.05-.09.1c0,.05-.12.35-.28.67-.68,1.37-.24,2.03,2.25,3.31.25.13.4.27.4.38s.09.34.19.55c.11.23.19.56.19.86,0,.4.05.55.28.84.21.26.28.46.28.72,0,.38.19.75.55,1.08.11.11.24.31.27.45.04.14.11.31.17.39.15.2,1,.86,1.11.86.18,0,.08-.25-.26-.62-.19-.21-.41-.51-.48-.66-.09-.16-.28-.49-.44-.75s-.29-.48-.3-.52c0-.03-.08-.21-.15-.39-.09-.18-.27-.69-.42-1.14-.37-1.15-.52-1.5-.63-1.49-.05,0-.11-.04-.13-.1-.09-.22.17-.11.52.22.36.34.49.41.49.24,0-.22-.57-.66-1.32-1.04-.44-.22-.93-.49-1.09-.6-.73-.52-1.26-.96-1.47-1.22l-.23-.28.23-.48c.12-.27.27-.56.32-.63s.19-.3.28-.51c.21-.41,1.82-2.11,1.9-2.02.04.03-.06.2-.2.36-.21.26-.25.37-.19.64.1.56.1,1.71,0,1.62-.06-.06-.13-.09-.19-.09s-.05.05.02.11c.17.17.14.23-.14.22-.44,0-.35.21.11.27.63.09,1.17.4,1.72.99.27.28.53.49.57.46.03-.04-.02-.15-.11-.26-.24-.27-.1-.36.24-.16.18.11.29.13.33.06.04-.05.05-.1.04-.11-.02,0-.18-.09-.35-.18-.17-.09-.37-.14-.45-.1-.18.07-.48-.21-.7-.64-.28-.55-.57-1.48-.57-1.86s.31-1.35.55-1.71c.08-.11.24-.48.35-.8.2-.54.25-.6.62-.75.63-.25.77-.22,1.01.22.3.52,1.08.89,1.66.8.73-.12,1.34-.75,1.24-1.28-.06-.26-.09-.28-.15-.16-.05.09-.09.27-.11.42,0,.15-.08.25-.14.23-.07,0-.09.02-.07.07.04.05-.07.18-.23.29-.15.11-.28.18-.28.14,0-.03-.09,0-.19.05-.15.08-.23.06-.4-.11-.14-.14-.19-.16-.14-.05.03.09.02.16-.02.16-.05,0-.1-.05-.12-.1-.05-.13.51-1.32.62-1.32.05,0,.14-.08.21-.16.07-.09.14-.14.18-.1.09.08-.44,1.02-.53.97-.09-.06-.22.33-.14.42.04.03.16-.05.27-.17.27-.29.74-1.23.62-1.23-.05,0-.07-.15-.05-.33.03-.18,0-.31-.04-.28s-.06.12-.03.22c.05.13.04.14-.08.06-.08-.06-.2-.1-.27-.1-.08,0-.22-.04-.31-.08s-.16-.04-.15,0c.03.19-.02.27-.09.15-.05-.09-.09-.02-.09.19-.02.17-.03.39-.04.47,0,.09-.05.17-.09.17-.13,0-.38.59-.28.68.06.06.13-.03.21-.25.06-.19.15-.34.2-.34.15,0,.09.25-.14.6-.15.23-.2.35-.12.38.07.02.09.07.06.09-.08.09-.65-.34-.65-.48,0-.06-.04-.11-.09-.11-.05,0-.09-.06-.09-.12,0-.08-.08-.2-.17-.28-.15-.13-.23-.14-.68-.03-.65.15-.94.32-1.01.62-.03.13-.15.43-.27.66-.11.24-.24.51-.27.62-.05.14-.08.15-.13.06-.15-.25,0-.75.33-1.1.4-.43.43-.66.04-.28-.15.15-.28.24-.29.18,0-.05-.03-.2-.05-.34-.05-.28.21-.5.47-.4.09.03.15.02.15-.04s.12-.12.28-.16c.15-.03.3-.14.33-.24.09-.28,1.14-.93,1.61-.99.4-.07.62-.02.62.12,0,.04-.2.08-.44.09-.27,0-.55.09-.7.21-.14.1-.37.22-.5.26-.13.03-.27.09-.29.13-.08.12.56.06.7-.08.07-.07.19-.1.27-.08s.11.02.09-.03c-.06-.09.21-.19.75-.32.06,0,.14-.05.19-.08.06-.03.23-.05.38-.04.16,0,.38-.02.5-.07.23-.08.72.16.63.3-.03.05,0,.1.05.14.05.03.09-.02.09-.11,0-.18.51-.47.75-.43.07.02.1,0,.08-.05s.2-.09.51-.09c.3,0,.56.03.56.09ZM12.1,5.95c-.15.38-.4.48-.28.12.07-.23.33-.57.39-.5.02.02-.03.19-.1.38ZM12.49,5.77c-.04.08-.1.14-.16.14-.07,0-.07-.06,0-.2.12-.22.25-.18.16.06ZM19.23,8.41c0,.08-.04.17-.09.2-.05.03-.09-.03-.09-.13,0-.11.05-.2.09-.2.06,0,.09.06.09.13ZM7.96,9.07c-.09.08-.09.07-.05-.07.03-.09.07-.23.07-.28,0-.07.03-.04.06.07.03.09,0,.22-.08.28ZM18.27,8.93c.03.08,0,.11-.09.09-.07-.02-.14-.09-.16-.16-.03-.08,0-.11.09-.09.07.02.14.09.16.16ZM16.03,8.99s-.05.1-.1.12-.1-.04-.1-.12.05-.14.1-.12.1.08.1.12ZM4.77,9.29c-.28.1-.45.73-.44,1.6.04,2.07,1.02,4.96,3.33,9.77.13.27.22.52.2.55-.09.09-.35-.08-.5-.3-.12-.19-.12-.23,0-.23.08,0,.16.06.18.11.03.07.06.08.06.03,0-.16-.14-.34-.31-.37-.1,0-.27-.27-.45-.68-1.94-4.51-2.7-6.72-2.79-8.24-.04-.63-.02-.92.07-1.02.07-.08.08-.14.03-.14-.16,0-.1-.38.08-.51.13-.09.16-.15.09-.2-.07-.04,0-.15.2-.29.17-.12.33-.2.36-.17.03.04,0,.09-.07.1ZM7.88,9.38c0,.25-.15.45-.23.32-.04-.06-.02-.1.04-.1.07,0,.09-.08.05-.19-.04-.1-.02-.19.04-.19s.1.08.1.16ZM12.99,9.42c0,.17-.02.18-.14.09-.14-.11-.11-.28.06-.28.05,0,.09.09.09.2ZM15.02,9.5s0,.11-.05.15c-.05.03-.09,0-.09-.09,0-.17.06-.2.14-.07ZM24.23,9.66s.08.16.08.41c.02.43,0,.45-.21.41-.27-.05-.27-.03-.09-.45.1-.25.1-.32.02-.29-.06.02-.15.16-.21.31-.05.15-.09.29-.1.31-.02,0-.11-.06-.23-.16l-.21-.19.23-.12c.11-.06.28-.19.36-.28.12-.14.15-.15.22-.03.05.08.1.12.14.09ZM23.68,9.54c0,.09-.67.44-.76.39-.17-.1-.1-.21.22-.31.34-.1.54-.13.54-.08ZM21.91,10.24c.24.65.19.73-.09.13-.26-.57-.26-.58-.15-.58.04,0,.15.2.24.44ZM24.74,10.17c.25.36.23.44-.09.36-.06-.02-.3-.59-.31-.72,0-.11.19.06.4.36ZM8.03,11.23c.09.27.21.56.27.63.09.11.07.12-.09.07-.1-.05-.28-.1-.4-.12-.22-.05-.31-.31-.11-.31.05,0,.07-.05.04-.09-.06-.09.03-.66.09-.66.02,0,.1.23.2.49ZM22,11.35c-.07.09-.08.15-.09.46-.03.27-.1.14-.15-.26-.03-.19,0-.35.04-.35s.07-.08.03-.17c-.05-.13-.03-.12.09.03.08.1.11.23.09.28ZM22.34,11.14c.02.11,0,.14-.11.1-.21-.08-.28-.34-.09-.3.09.02.18.1.2.2ZM23.42,11.07c0,.1-.66.24-.84.17-.07-.03-.12-.11-.12-.19,0-.1.11-.12.47-.1.27.02.48.07.49.12ZM23.3,11.4s-.09.09-.19.07c-.29-.05-.34-.16-.07-.16.14,0,.26.04.26.09ZM23.73,11.56c-.02.15-.04.49-.04.76,0,.29-.06.5-.11.5-.07,0-.09-.23-.08-.64.02-.35,0-.69-.04-.76-.06-.08-.02-.11.11-.11.15,0,.18.05.15.26ZM22.67,11.55c.09.04.17.13.17.22,0,.13.02.13.06,0,.06-.22.44-.16.48.07.02.09,0,.14-.05.11-.04-.03-.08.31-.07.76,0,.51-.04.84-.11.92-.08.09-.09.17,0,.29.08.14.07.2-.05.27-.13.09-.13.11,0,.3.16.26.1.42-.14.37-.09-.02-.28-.04-.44-.04-.23,0-.26-.03-.14-.11.11-.08.1-.09-.06-.04-.23.06-.39-.22-.45-.81-.05-.41,0-.48.39-.64.16-.07.32-.19.35-.27.08-.18-.1-.41-.31-.41-.09,0-.26-.09-.39-.2-.21-.17-.22-.19-.04-.13.17.05.2,0,.21-.25,0-.32.18-.59.34-.51.06.03.18.08.27.1ZM14.83,12.63s0,.09.1.09c.09,0,.42.13.74.29.31.16.84.38,1.15.47.32.1.75.25.95.33l.36.15-.26.13c-.25.13-.38.4-.13.29.81-.36,1.29-.54,1.44-.54.11,0,.45-.07.76-.15.31-.09.67-.16.8-.17.18,0,.27-.09.33-.3.06-.16.16-.38.24-.5.12-.19.18-.2.41-.11.15.06.4.1.56.1.46,0,.16.26-.41.33l-.46.07-.02.48c0,.27,0,.59,0,.7,0,.27-.06.27-.32.02-.13-.12-.23-.16-.27-.09-.03.06,0,.1.04.1.06,0,.1.06.1.12,0,.27-2.07,1.11-2.74,1.11-.28,0-.4-.07-.66-.39-.18-.21-.62-.55-.99-.75-.5-.28-.74-.49-.99-.85-.18-.27-.44-.58-.59-.68-.23-.15-.28-.36-.11-.36.03,0,.02.04,0,.09ZM24.12,12.74c.08.12-.38.55-.59.55s-.11-.22.13-.33c.11-.05.19-.15.16-.21-.06-.15.2-.16.29,0ZM21.71,13.75c-.04.47.1.91.39,1.15.26.21,1.15.14,1.3-.09.05-.08.11-.1.15-.07.1.09-.13.32-.42.4-.37.09-.47.21-.42.48.03.17.12.26.33.29.65.13-.21.22-1.21.12-.05,0,.06-.06.24-.12.27-.09.34-.17.36-.42.02-.23,0-.31-.16-.36-.09-.03-.29-.14-.43-.25-.23-.18-.25-.26-.25-.9,0-.39.04-.7.09-.7.04,0,.06.21.03.45ZM23.93,13.73c-.09.09-.27.13-.45.11l-.31-.03.43-.24c.3-.18.44-.21.45-.12.02.07-.04.19-.11.27ZM23.97,14.38c-.13.16-.71.16-.71,0,0-.13.64-.33.75-.23.05.05.04.14-.04.23ZM17.77,15.82c.19,0,.28.03.31.13.02.13-.07.14-.62.11-.7-.05-1.28.09-.93.21.41.13.66.32.69.51.03.15-.02.2-.16.2-.25,0-.25.09,0,.41.2.26.26.63.09.63-.06,0-.12-.08-.15-.17-.15-.48-.43-.96-.6-1.01-.11-.03-.2-.1-.2-.15,0-.11.09-.1.46.02.49.17.44.02-.08-.24-.73-.38-.82-.34-.91.28-.04.29-.04.56,0,.59.1.1.24-.21.19-.43-.08-.33.11-.34.27-.02.2.41.21,1.22,0,1.22s-.28-.26-.16-.41c.11-.14.11-.54,0-.54-.04,0-.08.09-.08.18,0,.29-.2.34-.4.1-.13-.17-.17-.31-.12-.54.03-.17.02-.31-.03-.31-.14,0-1.33,1-1.96,1.64-.65.67-1.18,1.44-1.43,2.05-.09.24-.21.45-.27.49-.08.05-.07.1,0,.18.09.09.08.14-.03.26-.11.1-.17.11-.26.03-.13-.13.11-.89.51-1.55.15-.25.27-.47.27-.51,0-.18,1.43-1.69,2.24-2.38.73-.61,2.6-1.28,2.92-1.04.05.04.22.06.37.05ZM18.24,16.54c0,.19-.06.35-.16.43-.24.17-.22.34.07.55.12.09.19.2.14.23s-.04.16.04.3q.13.25-.18.2c-.17-.03-.33,0-.36.04-.04.06.23.14.61.21.37.06.76.15.86.21.17.09.15.12-.21.55-.21.26-.38.5-.38.56,0,.05-.07.14-.14.21-.11.09-.14.09-.14,0,0-.16.4-.88.56-1,.1-.09.03-.13-.38-.22-.28-.07-.59-.14-.69-.17-.11-.03-.15,0-.11.06.04.06.15.1.26.1.12,0,.17.04.12.11s-.02.09.09.05c.24-.09.29.11.09.29-.22.19-.36.59-.22.59.06,0,.1-.06.1-.12,0-.17.26-.51.32-.44.03.03,0,.19-.09.35-.1.22-.23.31-.44.35-.33.06-.6.03-.69-.08-.21-.2-.8.09-.8.39,0,.09-.06.11-.15.08-.08-.03-.12-.02-.09.03s-.05.11-.18.14c-.13.04-.24.12-.24.2s-.04.14-.09.14c-.18,0-.09.21.23.53.29.29.31.35.22.61-.09.23-.08.3.07.46q.17.19-.09.16c-.15-.02-.48-.04-.73-.05-.26,0-.44-.05-.41-.09.03-.05-.09-.07-.26-.05s-.25,0-.18-.03c.06-.03.11-.18.11-.33s.05-.27.09-.27c.18,0,.66-.41.66-.56,0-.08-.11-.27-.26-.41-.16-.17-.23-.3-.16-.34.16-.11.1-.53-.09-.71-.21-.18-.46-.21-.72-.08-.12.08-.16.05-.17-.1-.03-.27-.28-.52-.6-.57-.15-.02-.26,0-.23.04.03.04,0,.08-.05.08-.12,0-.31.34-.39.71-.03.16-.11.28-.19.28s-.2.04-.26.08c-.07.05-.12.06-.12.02,0-.06.29-.53.38-.62.03-.03.17-.23.32-.44.15-.23.31-.38.37-.34s.07,0,.02-.07.17-.34.67-.81c.41-.39.78-.7.81-.7s.13-.07.21-.15c.13-.13.15-.13.15,0,0,.08-.08.19-.16.25-.15.09-.14.09.03.05.32-.09.37.22.09.44-.14.11-.24.28-.24.44,0,.14-.07.34-.14.44-.12.16-.11.21.06.44.1.15.27.27.35.27.14,0,.14.02.02.09-.1.07-.11.09-.02.09.08,0,.21.09.29.2.14.17.22.19.56.13.22-.04.46-.12.53-.19.07-.08.15-.1.18-.08.04.03.05-.04.02-.15-.03-.14,0-.2.12-.2.25,0,.45-.21.51-.5.04-.22,0-.3-.3-.54-.2-.16-.41-.28-.47-.28-.06,0-.09-.04-.06-.09.03-.04,0-.21-.04-.37-.05-.18-.05-.32,0-.35.09-.07.3.4.23.52-.09.13.33.45.51.41.2-.05.23-.57.05-.8-.09-.1-.07-.18.07-.31.12-.12.18-.14.18-.06,0,.07.03.1.06.08.08-.09-.23-.64-.35-.64-.06,0-.07-.05-.04-.09.03-.06.12-.09.2-.09.09,0,.11.05.08.11-.06.09-.05.09.07,0,.13-.1.57-.21.65-.14.03.02.05.17.05.33ZM20.79,16.38c.05.11.02.14-.09.09-.09-.03-.26.05-.42.22-.14.14-.32.28-.39.31-.09.03-.13.19-.14.44,0,.22-.04.42-.08.45-.09.1-.35-.15-.35-.35,0-.1-.04-.18-.09-.18-.05,0-.09.09-.09.19,0,.3-.21.67-.37.64-.18-.04-.27-.62-.11-.77.06-.06.1-.16.1-.24,0-.09-.07-.08-.25.07-.24.19-.42.19-.42,0,0-.05.15-.19.34-.32.28-.19.38-.22.52-.12.1.07.16.17.13.25-.04.1-.02.1.09.02.09-.08.15-.09.2,0,.03.05.1.09.15.09.06,0,.08-.04.04-.09-.03-.05-.03-.2,0-.33.05-.18.12-.24.31-.24.19,0,.58-.13.82-.27,0,0,.05.06.08.14ZM8.78,16.89c.04.15.1.3.15.33.05.04.09.1.09.17,0,.06-.07,0-.15-.1-.17-.25-.35-.8-.23-.73.05.03.1.18.14.33ZM20.16,17.32c-.07.14-.13.2-.15.14-.05-.15.05-.39.16-.39.07,0,.06.09,0,.25ZM9.32,18.27c-.03.08,0,.13.04.13.06,0,.14.11.21.26l.12.27-.25-.24c-.14-.12-.24-.29-.23-.38,0-.08-.02-.21-.07-.28-.07-.12-.06-.12.07-.02.09.08.13.19.1.27ZM15.86,18.08c.2.19.19.22-.04.16-.24-.07-.26.11-.03.21.15.06.14.08-.07.24-.16.13-.19.19-.09.19.08,0,.2-.06.27-.12.1-.09.11-.07.07.14s-.03.24.13.2c.1-.03.19-.11.19-.19,0-.09.06-.11.19-.08.22.07.27-.12.05-.2-.15-.07-.2-.32-.05-.32.24,0,.58.25.63.45.07.28-.11.42-.45.34-.23-.04-.25-.03-.21.19.04.18,0,.26-.12.3-.1.03-.26.09-.34.14-.25.13-.34.1-.45-.11-.09-.14-.08-.23,0-.33.14-.18.04-.29-.13-.14-.08.06-.2.09-.28.05-.31-.11-.28-.61.03-.61.1,0,.21-.05.24-.09.03-.06,0-.09-.09-.09-.23,0-.29-.21-.1-.35.24-.16.47-.16.65.03ZM19.92,18.48c-.03.46-.07.55-.21.55-.12,0-.17-.07-.16-.18s-.09-.24-.27-.34c-.27-.15-.27-.16-.12-.33.1-.1.24-.15.35-.11.1.04.22.02.26-.04.13-.22.19-.07.16.45ZM16.18,18.55c0,.08-.04.11-.09.09-.04-.03-.08-.09-.08-.14,0-.05.04-.09.08-.09.05,0,.09.07.09.14ZM10.18,19.63c.08.08.21.27.3.43q.16.28-.02.09c-.09-.1-.24-.22-.3-.24-.07-.03-.18-.22-.26-.42-.1-.33-.1-.35,0-.19.08.1.19.26.27.33ZM13.69,19.31c.19.08.19.44,0,.8-.13.26-.13.28,0,.28.08,0,.14-.04.14-.09,0-.11.39-.37.64-.43.26-.05.54.17.46.36-.03.09-.22.23-.42.31l-.36.16.28.07c.7.16.93.51.48.75-.16.09-.27.09-.42.02-.33-.18-.42-.11-.22.14.31.39.27.61-.12.61-.31,0-.56-.15-.65-.4-.04-.09-.07-.1-.17,0-.17.17-.3.15-.54-.07-.24-.23-.27-.57-.07-.57s.18-.09-.16-.39c-.19-.19-.27-.31-.2-.38.12-.12.32-.03.59.3.21.27.22.29.06.46-.14.15-.14.19-.04.19.08,0,.2-.06.27-.12.09-.09.15-.08.27.09.19.28.34.27.29-.02-.04-.19,0-.24.13-.24.1,0,.15-.05.12-.09-.03-.06-.14-.09-.26-.09-.17,0-.18-.02-.07-.15.11-.14.1-.15-.09-.09-.17.06-.21.04-.21-.15v-.22s-.13.23-.13.23c-.12.23-.13.23-.24.03-.17-.32-.12-.91.09-1.14.21-.22.27-.25.51-.15ZM21.32,19.6s-.09,0-.19-.06-.19-.12-.19-.15c0-.02.09,0,.19.06s.19.12.19.15ZM17.33,20.31l.1.29.18-.22c.15-.18.21-.2.3-.11.14.14,0,.98-.17,1.04-.07.03-.09-.03-.06-.15.03-.11,0-.2-.06-.2-.06,0-.1.07-.1.14,0,.19-.09.18-.25-.03-.11-.14-.12-.11-.09.21.04.29,0,.41-.16.55l-.21.18.31-.06c.24-.05.3-.03.3.09,0,.09.05.15.1.15.05,0,.09-.09.07-.21-.02-.14.03-.23.14-.25.13-.03.16.04.16.3,0,.43-.31.8-.53.62-.08-.06-.13-.17-.13-.24,0-.17-.05-.17-.32,0-.2.13-.24.13-.44-.03-.26-.21-.19-.59.11-.59.18,0,.21-.24.02-.24-.17,0-.51-.25-.61-.43-.21-.39.14-.61.59-.37.18.09.19.09.13-.15-.09-.37,0-.62.27-.62.16,0,.25.08.32.29ZM18.32,20.14c.11.09.14.15.07.2-.06.04-.11.05-.12.04-.02-.02-.09-.11-.15-.21-.15-.19-.03-.21.21-.03ZM18.25,21.11c-.09.22-.24.07-.18-.18.09-.43.16-.5.2-.23.02.15,0,.33-.02.41ZM12.23,20.83c0,.08-.04.12-.08.09-.05-.03-.09,0-.09.09,0,.1.04.11.12.04.2-.17.31-.02.23.29-.05.16-.05.28,0,.28s.08.06.08.13-.07.1-.17.09c-.09-.03-.14-.1-.12-.17.03-.07,0-.15-.07-.2-.08-.05-.09-.03-.04.06.05.08.03.1-.06.08-.15-.05-.18-.62-.05-.81.11-.16.25-.14.25.04ZM6.04,21.57c-.04.13-.02.24.04.24.05,0,.09-.09.09-.2,0-.17.04-.2.27-.15.32.08,3.24.69,4.18.89.39.08.88.18,1.09.23s.53.11.71.14.61.11.95.19,1.09.24,1.66.37c.58.12,1.54.32,2.16.44.93.18,1.11.24,1.11.39,0,.09,0,.17-.03.17s-.5-.09-1.07-.19c-.57-.09-2.05-.35-3.3-.57-1.25-.21-2.7-.46-3.22-.57-.52-.09-1.58-.28-2.37-.43-2.16-.37-1.97-.31-1.9-.62.03-.15,0-.27-.04-.27-.06,0-.09.1-.09.23,0,.18-.05.23-.19.22s-.19-.09-.19-.3c0-.24-.02-.26-.1-.11-.05.09-.07.21-.03.27.04.07,0,.09-.07.07-.15-.05-.22-.3-.14-.51.03-.08.16-.13.3-.13.22,0,.24.03.19.24ZM18.19,21.54s-.08.09-.16.08c-.1,0-.12-.03-.05-.06.06-.02.09-.09.06-.14-.04-.07-.02-.08.04-.04.07.04.11.1.11.16ZM27.04,22.26c.14.05.08.08-.26.1-.49.03-.54.08-.29.27.27.19.08.25-.3.09-.4-.16-.52-.13-.33.09.09.11.09.14-.04.14-.09,0-.15-.04-.15-.09s-.09-.1-.19-.13c-.23-.06-.18-.24.17-.7l.23-.3.48.23c.27.12.58.26.68.3ZM18.6,22.19c.1,0,.16.05.13.11-.02.07-.09.11-.14.1-.07-.02-.09.04-.05.13.04.1.03.13-.05.09-.07-.04-.11-.02-.11.03,0,.06-.1.1-.24.1-.14,0-.22-.05-.19-.12.22-.62.25-.66.35-.56.07.07.19.11.29.11ZM7.58,22.61s-.02.09-.08.16-.28.35-.49.62c-.37.48-.57.59-.81.43-.19-.11.26-.97.47-.92.62.18.61.18.35-.05-.13-.11-.17-.17-.09-.13.12.07.12.06,0-.1-.13-.16-.12-.17.24-.1.21.04.4.09.42.1ZM25.39,22.9c.09.12.09.14-.08.14-.14,0-.19-.05-.15-.14.04-.08.07-.14.09-.14,0,0,.08.07.14.14ZM26.39,23.09c.09.22-.14.43-.45.43s-.32-.22,0-.27c.11-.02.21-.09.21-.17,0-.18.18-.17.25,0ZM25.58,23.41c0,.15-.11.2-.68.29-.38.06-.86.15-1.07.21-.21.05-.8.17-1.33.27s-1.18.24-1.47.32c-.83.24-1.46.18-1.54-.14-.04-.15,0-.17.45-.17.27,0,.84-.06,1.25-.13.41-.09,1.06-.2,1.45-.27.39-.06,1.15-.21,1.7-.32,1.25-.27,1.23-.27,1.23-.06ZM26.05,24.73c0,1.09-.03,1.15-.44,1.07-.21-.04-.22-.09-.22-.78s.02-.74.22-.8c.17-.05.19-.08.07-.15s-.12-.09.02-.09c.09,0,.18-.04.22-.09.03-.06-.09-.08-.3-.05-.27.04-.32.03-.22-.05.08-.06.26-.1.41-.1h.26v1.03ZM19.16,24.14s.09-.02.1-.08c.03-.08.06-.06.06.04,0,.09-.06.17-.13.17s-.14.04-.14.09-.09.07-.19.04-.19-.09-.19-.13-.07-.06-.14-.03c-.09.04-.14,0-.14-.09,0-.12.07-.14.36-.09.19.03.38.08.42.09ZM19.71,24.79s.03.41,0,.87l-.05.83h-.28q-.28,0-.31-.6c-.02-.49,0-.6.14-.65.09-.04.23-.12.29-.19.1-.1.09-.12-.06-.12-.27,0-.49-.09-.49-.21,0-.09.6-.03.76.07ZM19.19,25.1s-.1,0-.17-.07c-.09-.09-.08-.1.06-.05.09.03.14.09.11.11Z"/>
    <path class="cls-1" d="M14.34,5.12c-.07.02-.19.19-.27.37-.09.17-.18.3-.22.27-.04-.02-.05.09-.03.25.04.27.21.39.21.14,0-.23.44-1.03.51-.93.04.06-.07.34-.22.63-.21.38-.25.52-.14.52.08,0,.13.04.13.09,0,.06-.15.03-.33-.05-.44-.18-.58-.18-.43,0,.07.08.18.14.26.14.09,0,.11.06.08.19-.06.17-.04.18.21.09.14-.06.45-.13.68-.16.29-.05.43-.11.44-.23.02-.13,0-.15-.15-.08-.09.06-.29.09-.43.09-.23,0-.24,0-.1-.15.09-.08.15-.21.15-.28s.05-.13.11-.13c.06,0,.04-.08-.06-.18-.1-.11-.13-.2-.07-.25.06-.03.1,0,.1.04,0,.06.05.1.09.1.06,0,0-.13-.11-.28-.21-.29-.23-.3-.43-.22ZM14.65,5.83c-.03.07-.09.2-.11.28-.07.19-.23.23-.23.07s.19-.46.29-.46c.06,0,.08.06.05.11Z"/>
    <path class="cls-1" d="M13.78,5.26c-.04.07-.03.09.04.05.05-.03.12,0,.14.06.04.09.06.09.06,0,0-.16-.15-.24-.24-.11Z"/>
    <path class="cls-1" d="M21.22,6.33c0,.14.35.27.49.19.12-.09-.11-.32-.31-.32-.1,0-.18.06-.18.13Z"/>
    <path class="cls-1" d="M19.57,6.62c-.09.23.62.45.75.25.07-.11-.31-.39-.53-.39-.09,0-.19.07-.22.14Z"/>
    <path class="cls-1" d="M17.01,6.86s0,.09.09.09c.09,0,.15-.05.15-.09,0-.06-.04-.09-.09-.09-.06,0-.12.04-.15.09Z"/>
    <path class="cls-1" d="M10.12,8.06c-.27.14-.61.75-.48.87.04.03.09,0,.11-.09s.21-.3.42-.51c.48-.48.47-.55-.05-.27Z"/>
    <path class="cls-1" d="M12.97,8.67c-.15.05-.27.13-.27.18,0,.04.07.06.15.02.09-.03.23-.06.33-.07s.19-.05.19-.1c0-.13-.11-.14-.41-.03Z"/>
    <path class="cls-1" d="M5.43,9.32c-.35.22-.56.62-.63,1.25-.04.34-.03.36.04.14.06-.15.17-.34.27-.42s.11-.11.06-.08c-.08.04-.12,0-.12-.09,0-.19.55-.81.72-.81.08,0,.13-.05.13-.09,0-.14-.1-.11-.45.09Z"/>
    <path class="cls-1" d="M8.29,9.64c-.09.26,0,1.03.14,1.08.1.04.11,0,.05-.13-.04-.1-.07-.38-.06-.63.02-.44-.04-.57-.13-.31Z"/>
    <path class="cls-1" d="M12.15,9.69c-.09.07-.07.09.11.08.13,0,.22-.05.19-.09-.06-.09-.14-.09-.3.02Z"/>
    <path class="cls-1" d="M10.03,9.8c.07.07.14.09.17.07s-.02-.09-.11-.11c-.13-.06-.14-.05-.06.05Z"/>
    <path class="cls-1" d="M8.54,10.3c0,.14.17.29.25.22.07-.07-.07-.35-.16-.35-.05,0-.09.06-.09.13Z"/>
    <path class="cls-1" d="M10.24,10.26s.09.13.19.19c.21.11.26,0,.08-.17-.13-.13-.27-.15-.27-.02Z"/>
    <path class="cls-1" d="M6.41,10.39c-.24.28-.57.92-.48.92.02,0,.15-.18.3-.41.15-.22.34-.44.42-.51.12-.1.12-.11,0-.11-.08,0-.19.05-.24.11Z"/>
    <path class="cls-1" d="M10.76,10.36s0,.09.09.09c.09,0,.15-.05.15-.09,0-.06-.04-.09-.09-.09-.06,0-.12.04-.15.09Z"/>
    <path class="cls-1" d="M11.09,10.53c0,.1.44.3.66.3.1,0,.19-.05.19-.09,0-.06-.1-.09-.24-.09s-.24-.05-.24-.09c0-.06-.09-.09-.19-.09s-.19.04-.19.08Z"/>
    <path class="cls-1" d="M15.03,10.66c-.18.13-.29.17-.31.1-.05-.14-.56.03-.62.2-.03.07-.19.12-.35.13-.41,0-.62.21-.23.21.49,0,1.93-.57,1.93-.76,0-.14-.11-.11-.42.11Z"/>
    <path class="cls-1" d="M10.72,10.72c0,.09.56.38.76.41.33.04.66-.02.66-.1,0-.06-.16-.09-.35-.09-.2,0-.48-.07-.63-.14-.29-.16-.44-.18-.44-.07Z"/>
    <path class="cls-1" d="M13.35,10.71c.07.03.15.02.18,0,.04-.03-.02-.06-.12-.05-.1,0-.13.03-.06.06Z"/>
    <path class="cls-1" d="M6.65,10.88s.05.16.09.24.09.09.09.05c0-.06-.05-.16-.09-.24s-.09-.1-.09-.05Z"/>
    <path class="cls-1" d="M8.48,11.07c-.07.17.11.65.3.81.1.09.13.08.13-.04,0-.09-.04-.18-.09-.21-.05-.03-.09-.18-.09-.33,0-.31-.16-.46-.25-.24Z"/>
    <path class="cls-1" d="M8.92,11.37c0,.19.27.52.32.43.08-.12-.09-.49-.23-.49-.06,0-.09.03-.09.07Z"/>
    <path class="cls-1" d="M5.94,12.24s-.02.11.03.14.09,0,.09-.09c0-.16-.03-.18-.11-.06Z"/>
    <path class="cls-1" d="M5.42,12.45c0,.18.43.59.57.54.06-.02-.05-.18-.24-.36-.22-.21-.33-.27-.33-.18Z"/>
    <path class="cls-1" d="M13.74,13.07c-.18.07-.45.12-.6.12-.31,0-1.01.35-1.01.49,0,.07.07.08.17.03.09-.04.41-.07.71-.05.37,0,.54-.02.54-.09s-.12-.09-.38-.06c-.22.03-.36,0-.32-.04.03-.05.24-.09.47-.09.44,0,.98-.22.98-.38,0-.12-.15-.1-.57.06Z"/>
    <path class="cls-1" d="M6.29,13.12c-.08.08,0,.18.29.42.47.38,1.29.83,1.36.77.02-.03-.09-.12-.27-.21-.53-.27-1.22-.84-1.17-.97.07-.15-.06-.16-.21,0Z"/>
    <path class="cls-1" d="M6.65,13.2s.05.09.1.09c.05,0,.07-.05.04-.09-.03-.06-.08-.09-.1-.09-.02,0-.04.04-.04.09Z"/>
    <path class="cls-1" d="M6.97,13.46c.09.15.91.62.97.56.03-.03-.12-.16-.34-.3-.49-.31-.72-.4-.62-.26Z"/>
    <path class="cls-1" d="M14.5,14.03c-.76.09-1.66.57-2.13,1.14-.41.49-.19.48.31,0,.5-.5,1.2-.8,1.9-.83.49-.03.67-.08.67-.18,0-.09-.44-.15-.76-.11Z"/>
    <path class="cls-1" d="M6.47,14.3c.07.09.23.19.35.24.13.05.21.11.17.15-.07.07.11.31.24.31.22,0,.05-.29-.31-.56-.43-.31-.65-.39-.44-.14Z"/>
    <path class="cls-1" d="M5.51,14.37c0,.09.05.15.09.15.06,0,.09-.04.09-.09,0-.06-.04-.12-.09-.15-.05-.03-.09,0-.09.09Z"/>
    <path class="cls-1" d="M9.04,14.94c.19.17.35.39.35.47s.05.15.09.15c.06,0,.09-.07.09-.14s.05-.14.09-.14c.06,0,.09-.05.09-.09,0-.06-.07-.09-.13-.09-.08,0-.26-.1-.4-.24s-.32-.24-.4-.24c-.09,0-.02.12.2.32Z"/>
    <path class="cls-1" d="M13.39,14.77c-.17.09-.31.19-.31.24,0,.13.15.1.28-.06s.33-.2.24-.05c-.09.14.04.11.19-.04.08-.07.1-.15.08-.19-.09-.09-.13-.08-.47.09Z"/>
    <path class="cls-1" d="M5.84,15.38c.2.57.43,1.03.43.83,0-.2-.47-1.46-.56-1.49-.05-.02,0,.27.13.65Z"/>
    <path class="cls-1" d="M10.56,15.37c.04.44.16.81.44,1.36.39.79,1.17,1.76,1.27,1.6.04-.06-.02-.17-.12-.27-.55-.49-1.42-2.26-1.42-2.89,0-.15-.05-.3-.11-.34-.08-.05-.09.09-.05.53Z"/>
    <path class="cls-1" d="M14.98,15.01c-.23.1-.4.21-.37.23.09.09,1.15-.2,1.19-.31.06-.17-.35-.12-.82.09Z"/>
    <path class="cls-1" d="M7.74,15.35c.07.29.31.73.38.66.05-.05-.33-.92-.4-.92-.02,0-.02.11.02.26Z"/>
    <path class="cls-1" d="M14.8,15.63c.04.2.31.24.31.03,0-.08-.08-.15-.17-.17-.13-.03-.17,0-.14.14Z"/>
    <path class="cls-1" d="M6.27,15.86s.05.07.09.04c.06-.03.09-.08.09-.1,0-.02-.04-.04-.09-.04-.05,0-.09.05-.09.1Z"/>
    <path class="cls-1" d="M8.92,15.98c0,.09.05.15.09.15.06,0,.09-.04.09-.09,0-.06-.04-.12-.09-.15-.05-.03-.09,0-.09.09Z"/>
    <path class="cls-1" d="M6.41,16.48c.03.55,1.16,3.32,1.18,2.9,0-.11-.43-1.14-.96-2.29-.25-.53-.16-.62.1-.11.1.22.21.39.24.39.06,0-.15-.6-.25-.71-.05-.05-.09-.16-.09-.25s-.06-.21-.13-.27c-.11-.09-.13-.04-.1.34Z"/>
    <path class="cls-1" d="M10.53,16.39c0,.11.05.24.09.27.12.08.12-.14,0-.33-.08-.11-.09-.1-.09.07Z"/>
    <path class="cls-1" d="M9.15,16.64c.09.54.22.81.38.81.09,0,.19.1.24.24s.13.24.19.24.04-.11-.05-.28c-.08-.15-.14-.33-.14-.41,0-.07-.07-.21-.14-.31-.13-.17-.13-.16-.09.15.06.36,0,.29-.27-.43l-.16-.38.06.37Z"/>
    <path class="cls-1" d="M9.3,16.51s.07.09.15.09c.08,0,.11-.05.09-.09-.03-.06-.09-.09-.15-.09-.05,0-.09.04-.09.09Z"/>
    <path class="cls-1" d="M8.1,16.86c.05.16.03.27-.06.32-.09.06-.07.09.08.09.16,0,.19.05.15.3-.04.27-.03.29.1.19.12-.1.17-.09.29.14.09.16.14.21.15.11,0-.09-.12-.33-.28-.54-.15-.22-.28-.5-.28-.63s-.05-.24-.1-.24c-.07,0-.09.09-.05.26Z"/>
    <path class="cls-1" d="M10.72,16.92c0,.21,1,1.55,1.1,1.47.03-.03-.17-.35-.44-.7-.55-.75-.65-.86-.65-.77Z"/>
    <path class="cls-1" d="M10.68,17.45s-.02.11.03.14c.05.04.11.02.14-.03.04-.05.02-.11-.03-.14-.05-.04-.11-.02-.14.03Z"/>
    <path class="cls-1" d="M12.19,17.49c.03.09.09.14.11.11s0-.1-.07-.17c-.09-.09-.1-.08-.05.06Z"/>
    <path class="cls-1" d="M9.58,17.84c0,.16.36.83.49.91.08.05.09.02.05-.09-.04-.09-.03-.14.03-.1.06.03.09.11.09.18,0,.14.44.68.51.62.02-.03-.11-.29-.3-.6-.19-.31-.36-.5-.4-.44-.04.07-.11-.02-.19-.19-.12-.3-.28-.46-.28-.28Z"/>
    <path class="cls-1" d="M10.91,17.79c0,.16.27.46.35.39.04-.03-.03-.15-.14-.27-.11-.11-.21-.16-.21-.11Z"/>
    <path class="cls-1" d="M10.15,18.02s.07.09.15.09c.08,0,.11-.05.09-.09-.03-.06-.09-.09-.15-.09-.05,0-.09.04-.09.09Z"/>
    <path class="cls-1" d="M10.34,18.32c0,.16.26.43.33.35.03-.03-.03-.15-.13-.27-.15-.18-.19-.19-.2-.08Z"/>
    <path class="cls-1" d="M9.49,19.59c.11.31.12.36,0,.28-.05-.03-.11,0-.14.03-.07.1.28.42.63.57.34.14.33,0-.02-.25-.15-.11-.3-.33-.34-.49-.04-.15-.1-.3-.15-.33-.05-.04-.05.05,0,.19Z"/>
    <path class="cls-1" d="M10.54,19.63c.13.18.3.34.38.37.08.02.03-.09-.11-.27-.13-.18-.3-.34-.38-.37-.08-.02-.03.09.11.27Z"/>
    <path class="cls-1" d="M20.51,22.57s0,.09.09.09c.09,0,.15-.05.15-.09,0-.06-.04-.09-.09-.09-.06,0-.12.04-.15.09Z"/>
    <path class="cls-1" d="M21.22,22.66s-.07.07-.14.04c-.08-.04-.14,0-.14.05,0,.05.18.14.41.2.22.06.44.12.51.14.06.02.16-.03.22-.1.1-.11.07-.13-.23-.13-.22,0-.37-.05-.4-.14-.07-.16-.23-.2-.23-.05Z"/>
    <path class="cls-1" d="M20.15,14.64c-.14.05-.24.13-.21.17.07.1.52-.09.52-.21,0-.04,0-.08-.02-.07-.02,0-.14.05-.29.1Z"/>
    <path class="cls-1" d="M19.23,14.81c-.13.03-.24.1-.24.16s-.04.14-.08.19c-.05.04-.07.03-.05-.02.02-.06,0-.09-.07-.09-.05,0-.09.04-.07.09s-.06.06-.17.03c-.12-.03-.19,0-.19.09,0,.08.04.13.08.13.15,0,1.11-.3,1.18-.37.13-.12-.16-.27-.41-.2Z"/>
    <path class="cls-1" d="M18,15.28s.05.09.09.09c.06,0,.09-.05.09-.09,0-.06-.04-.09-.09-.09-.05,0-.09.04-.09.09Z"/>
    <path class="cls-1" d="M16.96,19.61s.07.09.14.09.11-.04.09-.09c-.03-.04-.09-.08-.14-.08-.05,0-.09.04-.09.08Z"/>
    <path class="cls-1" d="M6.61,23.31s0,.09.09.09.11-.04.09-.09c-.03-.04-.07-.08-.09-.08s-.06.04-.09.08Z"/>
    <path class="cls-1" d="M21.13,16.98s.06.09.13.09.27.1.42.24c.35.29.44.3.26.02-.21-.32-.8-.58-.8-.35Z"/>
    <path class="cls-1" d="M21.7,17.73c.16.21.35.35.42.33.07-.03.18.09.27.29.09.18.2.31.26.28.09-.06-.07-.42-.33-.76-.09-.11-.14-.14-.15-.07,0,.08-.13,0-.29-.16-.42-.42-.53-.36-.17.08Z"/>
    <path class="cls-1" d="M22.13,18.3s-.02.11.03.14c.05.04.11.02.14-.03.04-.05.02-.11-.03-.14-.05-.04-.11-.02-.14.03Z"/>
    <path class="cls-1" d="M27.09,18.49c0,.06.04.12.09.15s.07,0,.04-.09c-.07-.17-.13-.2-.13-.07Z"/>
    <path class="cls-1" d="M22.74,18.97s.05.09.09.09c.06,0,.09-.05.09-.09,0-.06-.04-.09-.09-.09-.05,0-.09.04-.09.09Z"/>
    <path class="cls-1" d="M21.55,19.16c-.03.06,0,.07.09.04.17-.07.2-.13.07-.13-.06,0-.12.04-.15.09Z"/>
    <path class="cls-1" d="M19.61,19.63s.03.09.08.09c.04,0,.25.05.47.09.51.1.61-.02.12-.17-.44-.13-.67-.13-.67,0Z"/>
    <path class="cls-1" d="M20.18,19.99c0,.08,1.15.51,1.21.45.02-.02-.11-.12-.28-.23-.34-.2-.93-.34-.93-.23Z"/>
    <path class="cls-1" d="M21.38,20.2c.54.31.6.33.6.19,0-.09-.77-.47-.97-.47-.07,0,.09.13.37.28Z"/>
    <path class="cls-1" d="M21.51,20.58s.05.09.09.09c.06,0,.09-.05.09-.09,0-.06-.04-.09-.09-.09-.05,0-.09.04-.09.09Z"/>
    <path class="cls-1" d="M22.19,20.6c.05.14.27.22.27.09,0-.05-.07-.12-.15-.15-.09-.04-.13,0-.11.06Z"/>
    <path class="cls-1" d="M25.91,20.67c-.09.1-.15.21-.13.24.07.06.46-.23.46-.34,0-.14-.15-.09-.33.1Z"/>
    <path class="cls-1" d="M21.91,21.01c0,.08.04.11.09.09s.06-.09.03-.14c-.09-.12-.11-.1-.11.06Z"/>
    <path class="cls-1" d="M25.06,21.01c-.09.25-.07.3.05.11.06-.09.09-.2.06-.22-.02-.03-.07.02-.1.1Z"/>
    <path class="cls-1" d="M25.38,21.2c-.11.13-.1.15.05.12.1-.02.2-.09.23-.16.05-.16-.12-.14-.27.04Z"/>
    <path class="cls-1" d="M24.06,21.42c0,.1.04.21.09.24.04.03.06-.06.03-.18-.05-.28-.11-.31-.11-.06Z"/>
    <path class="cls-1" d="M24.97,21.89c-.14.22-.23.44-.19.5.07.12.53-.65.48-.8-.02-.06-.15.08-.29.3Z"/>
    <path class="cls-1" d="M24.06,21.85s.08.09.17.16c.14.12.15.11.03-.04s-.2-.2-.2-.12Z"/>
    <path class="cls-1" d="M22.93,22.18c0,.11.27.39.39.39.09,0,.11-.11.03-.32-.06-.16-.42-.22-.42-.07Z"/>
    <path class="cls-1" d="M5.41,23.49c-.12.15-.11.16.04.04s.2-.2.12-.2c-.02,0-.09.08-.16.16Z"/>
  </g>
</svg>