<?xml version="1.0" encoding="UTF-8"?>
<svg id="Calque_1" data-name="Calque 1" xmlns="http://www.w3.org/2000/svg" viewBox="0 0 494.15 449.27">
  <defs>
    <style>
      .cls-1 {
        fill: #010101;
      }
    </style>
  </defs>
  <path class="cls-1" d="M216.39.67c-4.43.77-10.41,2.89-13.3,4.82-4.63,3.08-6.36,3.28-12.53,1.16-4.24-1.35-10.22-1.93-14.26-1.16-4.43.77-9.25.19-13.88-1.73-10.99-4.63-23.9-3.85-32.57,2.12-8.09,5.4-13.68,11.37-16.19,17.15-1.16,2.51-5.78,5.2-13.68,7.52-13.3,4.05-16.77,8.67-13.3,17.92,1.35,3.47,1.16,5.78-.19,7.13-.96.96-1.93,6.75-1.93,12.72-.19,10.02-.58,10.79-7.13,15.03-6.75,4.24-7.32,4.43-15.03,1.54-16.58-6.36-38.74-2.51-50.88,8.87-18.7,17.54-15.03,51.27,14.07,129.71,2.89,7.32,5.97,15.23,6.94,17.35s2.7,7.32,4.05,11.56c1.16,4.24,8.67,21.39,16.58,38.16,7.9,16.58,14.07,31.42,13.49,32.96-.58,1.35-6.17,3.47-12.72,4.82-12.91,2.51-19.47,8.48-19.47,17.35,0,7.32,1.93,9.06,13.11,11.76,5.4,1.54,10.02,3.66,10.02,5.01s-2.51,6.94-5.78,12.34c-6.75,11.56-7.13,14.65-2.12,17.35,6.94,3.66,12.14,2.12,18.89-5.4,3.47-3.85,6.36-7.71,6.36-8.48,0-.58,2.12-3.85,4.82-6.94l4.63-5.59,15.61,2.51c8.67,1.35,17.15,3.08,19.08,3.66,1.93.58,13.3,2.7,25.44,4.63,24.09,4.05,105.43,18.89,140.7,25.63l22.36,4.43,1.16,17.35c.77,9.64,1.73,19.08,2.51,20.82,1.93,5.01,9.44,6.17,15.03,1.93,4.43-3.08,4.82-4.82,5.01-16.96,0-7.52.77-14.65,1.54-16,.96-1.35,11.37-4.05,23.13-6.17,11.95-1.93,26.98-5.01,33.73-6.75,9.44-2.51,45.49-10.6,46.84-10.6,0,0,.77,8.87,1.35,19.66.96,15.8,1.93,20.43,4.63,22.36,3.85,2.89,14.07,1.54,16.38-2.12.77-1.16,1.54-11.95,1.54-23.71,0-19.85.39-21.59,3.85-22.55,2.7-.58,3.85-2.7,3.85-5.97,0-2.7.96-5.01,2.12-5.01,1.35,0,1.73-1.93.96-4.82-1.16-4.24-.58-4.82,4.05-4.82,3.08,0,6.75-.96,8.29-1.93,2.51-1.54,2.31-2.12-.96-4.82-2.12-1.73-8.29-5.2-13.88-7.71-5.4-2.51-10.41-5.59-11.18-6.55-.58-1.16,7.52-10.79,18.31-21.59,10.6-10.6,18.89-20.24,18.31-21.2-1.93-3.08-9.64-1.93-19.27,3.08-9.83,4.82-12.53,5.2-8.09.77,4.24-4.24,7.52-15.61,5.2-17.92q-2.12-2.12-13.49,6.36l-6.36,4.82,1.16-5.01c.77-2.89,1.93-6.36,2.51-8.09,1.93-5.01-5.59-3.66-13.11,2.12-5.78,4.82-16.96,16.77-26.79,28.91-6.17,7.52-14.07,23.51-12.53,25.06.96.77,2.51,0,3.85-1.93,11.95-19.27,19.27-28.91,29.68-39.32,6.75-6.75,12.91-12.14,13.88-12.14.77,0,.39,3.47-.58,7.71-1.16,4.24-1.54,8.09-.77,8.87.58.58,4.82-2.31,9.44-6.75,8.87-8.29,11.95-7.71,5.97,1.16-4.43,6.55-9.06,17.73-7.9,18.89.58.58,7.71-2.89,16-7.71,8.29-4.63,15.61-8.29,16-7.71.58.58-9.06,10.79-21.39,22.94-16.38,16-23.9,24.67-27.37,32.19-2.7,5.78-4.82,11.37-4.82,12.72,0,5.97-20.43,9.06-24.86,3.66-1.35-1.54-11.18-5.4-21.97-8.87-10.79-3.28-22.16-7.13-25.44-8.67-13.88-6.17-18.5-7.13-27.37-5.97-14.84,2.12-33.34,2.89-34.11,1.35-1.16-1.93,2.51-25.83,5.01-31.99,3.08-7.71,12.91-22.16,15.03-22.16,4.43,0,35.66,9.64,46.26,14.26,2.7,1.16,9.64,5.78,15.42,10.22,6.55,5.2,12.53,8.29,16,8.29,6.36,0,6.94-3.08.77-4.63-5.2-1.16-22.94-12.53-25.06-16-.77-1.16-4.82-4.24-8.87-6.55-4.24-2.31-8.09-5.97-8.67-8.29-.58-2.31-2.31-5.78-4.05-7.9-2.89-3.66-3.08-3.47-1.93,3.66,1.16,6.75.77,7.32-2.31,6.17-1.93-.77-5.78-1.93-8.67-2.51-4.63-.96-5.4-2.12-5.4-7.13.19-15.42,9.25-38.74,16.58-42.02,5.78-2.7,13.49.39,21.97,8.67,7.13,6.94,11.76,15.61,23.32,43.75,7.71,18.7,10.99,24.28,13.11,22.16.39-.58-1.93-6.75-5.2-13.88-3.28-7.32-10.41-23.13-15.8-35.27-9.44-20.82-15.8-30.84-19.66-30.84-.96,0-5.4-1.73-9.64-3.85-9.44-4.43-18.7-4.82-30.65-1.35-4.63,1.54-9.25,2.7-10.02,2.7-.96.19-2.31.77-2.89,1.54-.77.77,2.12.77,6.36,0,11.37-2.12,7.32.39-5.78,3.66-6.36,1.35-13.3,3.28-15.42,4.05-3.85,1.35-3.85,1.16-.19-1.73,2.12-1.73,5.97-3.08,8.67-3.28,3.47,0,4.05-.58,2.12-1.35-6.17-2.89-13.49-8.67-13.49-10.79,0-1.16,5.97-3.47,13.11-5.2,7.32-1.73,20.43-6.75,29.3-11.18,18.31-8.87,19.66-9.25,23.32-4.63,1.54,1.73,5.59,4.24,9.06,5.78,4.63,1.93,6.17,3.85,6.17,7.32s-.96,4.82-3.66,4.82c-8.87,0-13.49,5.97-6.75,8.48,3.85,1.54,28.53,1.54,32.38,0,5.2-1.93,3.47-6.36-3.08-8.09-8.48-2.12-8.87-5.59-.77-8.87,3.66-1.54,8.09-5.01,9.83-7.71,1.93-2.7,4.43-5.01,5.97-5.01,5.4,0,7.52-7.13,7.52-26.21s-.19-19.08-4.43-19.66c-4.24-.58-4.43-1.35-3.85-15.03.19-10.41-.39-15.03-2.12-16.19-1.54-.77-1.93-2.51-1.35-3.66,1.54-2.31,11.37-2.89,13.49-.77,1.73,1.93,20.43,2.12,20.43.39,0-.77-4.82-7.52-10.6-15.03-5.78-7.52-10.6-15.42-10.6-17.54,0-4.43-2.89-5.01-5.2-.96-.96,1.54-9.44,4.82-18.7,7.13-16.58,4.24-24.09,9.25-14.07,9.25,2.51,0,5.78,1.35,7.13,2.89,1.35,1.54,3.66,2.89,5.4,2.89,4.24,0,11.95,7.52,10.79,10.6-.96,2.51-24.86,2.51-27.56,0-.58-.77-2.89-6.17-5.01-12.14-3.28-9.64-4.63-10.99-9.44-11.56-4.63-.58-5.4-.19-4.24,2.51,1.16,3.28-2.51,7.71-11.95,14.07-8.29,5.4-6.17,1.16,2.7-5.59,4.82-3.47,7.71-6.75,6.55-7.13-2.31-.77-19.27,12.53-19.27,15.23,0,5.59,13.3,2.31,19.08-4.82,4.05-4.82,7.52-3.66,9.83,3.85,1.93,5.78,1.73,7.32-.96,10.41-2.89,3.28-3.08,4.82-1.16,12.72,2.7,10.79,1.54,15.42-4.63,16.96-2.89.77-5.78,3.85-7.9,8.67-2.89,6.55-4.43,7.71-16,11.56-6.94,2.31-15.23,4.24-18.5,4.24-3.08,0-9.25,1.16-13.49,2.51-7.13,2.31-8.48,1.93-18.12-3.08-5.78-2.89-12.53-5.4-15.03-5.4s-11.18-3.66-19.08-7.9c-7.9-4.43-18.12-9.06-22.55-10.41-6.55-1.93-8.29-3.47-9.64-8.48-1.73-7.32.19-10.79,7.52-12.53,2.7-.77,8.29-3.47,12.34-6.17,13.11-8.67,41.82-19.85,59.17-23.13,33.34-6.17,50.5-14.07,58.4-26.79,2.12-3.47,3.85-8.48,3.85-11.18,0-3.47,1.35-5.4,4.43-6.17,2.31-.77,6.55-3.66,9.64-6.36,6.75-6.55,7.13-18.12.77-27.56-3.66-5.59-5.78-6.55-12.72-7.13-6.75-.58-9.06.19-12.72,4.24-5.4,5.78-8.48,6.17-16.58,1.93-6.55-3.28-11.76-2.31-17.15,3.47-3.47,3.85-5.97,4.05-38.35,4.24l-34.5.19.96-9.83c.96-9.06-2.12-19.85-6.75-22.55-3.08-2.12-15.23-2.89-22.74-1.54ZM234.89,7.03c0,.96,1.16,1.16,2.51.39,1.16-.77,1.73-.77.96.19-.77.77-.58,2.7.39,3.85,2.12,2.51,2.51,7.52,1.35,19.85-.58,6.55-2.12,9.44-7.32,13.88-4.63,4.05-5.59,5.59-3.28,5.78,1.73,0,3.85-.96,4.43-2.12.77-1.16,2.51-1.54,4.05-.96,3.47,1.35,8.67-.58,7.52-2.89-.58-.77-2.51-.96-4.24-.39-1.93.77-2.7.39-1.93-.77,1.35-2.12,26.21-7.13,27.75-5.59.58.39-.96,1.73-3.08,3.08-2.31,1.16-4.05,2.89-4.05,3.85,0,3.28,5.01,2.12,8.87-2.12,2.51-2.7,5.2-3.66,9.06-3.08,2.89.39,5.78,0,6.36-.96,1.16-1.93,12.34-2.12,12.34-.19,0,.77-1.93,3.47-4.24,5.97l-4.43,4.63,6.75-1.35c3.66-.77,8.29-3.08,10.22-5.01,4.05-4.24,10.99-4.82,10.99-.96,0,1.35,1.35,3.85,3.08,5.2,2.89,2.31,3.08,1.93,1.73-3.66-.96-4.82-.58-7.32,2.12-10.22,4.43-4.82,8.29-4.63,16.19,1.16,6.75,4.82,13.49,6.36,13.49,2.89,0-1.16-1.35-1.93-2.89-1.93-5.2,0-3.08-2.89,5.01-6.36,10.02-4.82,16.19-3.08,18.89,4.63,4.43,12.91,1.93,21.39-7.9,24.67-7.71,2.7-12.53-.58-5.01-3.47,5.59-2.12,8.87-5.97,5.01-5.97-4.43,0-15.03,7.52-17.35,12.34-2.89,6.75-6.17,7.71-25.83,7.9-14.84,0-18.31.58-21.97,3.85-3.66,3.28-7.71,4.05-30.45,4.82-18.5.77-26.41,1.73-26.98,3.28-.77,2.89-6.17,3.28-6.17.58,0-1.16,1.35-1.93,2.89-1.93,3.85,0,3.66-3.66,0-5.2-4.05-1.54-5.4.19-5.59,7.52-.19,8.87-7.71,10.79-23.13,5.78-10.6-3.47-12.34-3.47-22.36-.77-6.36,1.73-13.49,2.31-17.54,1.54-7.32-1.35-22.94-13.3-20.62-15.61.77-.96,2.7-.39,4.24.77,3.28,2.7,6.94,1.35,6.94-2.7,0-3.08-7.32-5.01-13.49-3.47-5.59,1.35-19.27,13.68-19.27,17.35,0,3.85,1.73,3.08,7.13-3.28,5.97-7.32,10.22-7.32,14.46-.19,3.47,6.36,17.54,13.68,26.02,13.68,3.28,0,6.36,1.54,7.9,3.85,4.43,7.32,11.76,2.51,9.06-5.97-1.54-4.63,2.7-6.36,8.87-3.66,9.06,4.05,12.72,6.75,11.76,9.25-.39,1.16.19,2.31,1.35,2.31s2.12-.96,2.12-1.93c0-3.47,6.75-2.12,9.25,1.93,3.28,5.4,8.09,5.01,8.09-.58,0-2.51,2.12-6.55,4.63-8.87,4.82-4.63,8.87-4.05,8.87.96,0,5.4,6.75,1.93,7.71-4.05.58-3.08,1.54-5.4,2.51-5.4.77.19,7.71.77,15.42,1.54,9.83.96,15.03,2.51,18.12,5.2,5.01,4.63,8.29,3.08,8.29-3.85,0-4.43,5.4-11.95,8.48-11.95.58,0,1.35,2.51,2.12,5.78.77,3.08,2.51,5.78,4.05,5.78s3.28-2.51,4.05-5.78c.58-3.28,2.12-5.78,3.28-5.78s3.28,2.51,4.43,5.78c2.51,6.55,8.29,7.9,8.29,1.93,0-2.51-.96-3.47-2.89-2.7-1.54.77-2.89.39-2.89-.77,0-.96,3.28-2.31,7.32-3.08,4.43-.58,9.64-3.47,13.49-7.13,3.47-3.47,6.75-5.59,7.32-5.01,2.31,2.31-3.66,15.03-9.44,19.85-7.71,6.55-23.13,13.68-32.19,14.84-18.31,2.51-44.91,10.22-58.79,17.35-40.09,20.24-42.02,21.01-53.39,22.16-8.09.58-11.95.19-13.11-1.35-1.16-1.93-3.47-1.73-10.41.58-11.18,3.85-13.68,3.85-24.86,0-9.83-3.28-23.51-16.58-25.63-24.67-1.35-5.78-4.63-6.75-4.63-1.35,0,6.36,12.14,21.97,21.39,27.75,10.22,6.17,16.58,6.75,47.99,3.85,11.18-1.16,20.62-1.73,21.01-1.35,1.54,1.35-12.53,8.48-15.61,7.71-1.73-.39-3.66.39-4.24,1.93-.77,1.93-3.85,2.31-11.76,1.73-10.99-.77-14.46,1.73-5.4,4.05,7.32,1.93,26.79-2.12,32.77-6.94,2.7-2.12,5.4-3.47,5.97-3.08.39.58,1.35,4.82,1.73,9.25.77,6.17,2.31,9.44,6.75,12.91,3.08,2.51,8.29,9.06,11.37,14.65,5.97,10.79,10.79,14.84,19.47,16.96,2.7.77,10.02,5.4,16.19,10.41l11.37,9.25-13.68,1.16c-24.48,2.31-50.11,16.58-76.13,42.4-21.39,21.2-32.96,40.09-40.47,64.95-2.7,9.06-1.16,11.95,6.55,11.95,1.73,0,3.28.77,3.28,1.93,0,4.24,16,11.95,33.92,16.38,21.39,5.2,80.95,14.46,93.86,14.46,7.13,0,9.25-1.16,15.61-7.52,5.97-6.17,9.25-7.9,17.35-8.87,5.4-.77,11.37-2.12,13.11-3.08,2.51-1.35,5.01-.77,8.87,2.12,5.78,4.24,10.79,5.78,34.69,10.6,7.9,1.54,16.77,4.05,20.04,5.78,3.28,1.54,7.13,2.89,8.67,2.89,1.35,0,2.51.58,2.51,1.54,0,.77-10.99,3.47-24.48,5.97-13.68,2.51-30.07,5.78-36.62,7.13-10.99,2.31-13.11,2.12-30.84-2.12-17.35-4.43-31.22-7.13-93.09-18.31-12.14-2.12-31.22-5.97-42.4-8.67-20.62-4.82-49.34-10.41-75.17-14.46-7.9-1.35-21.59-4.05-30.45-5.97-8.67-2.12-18.5-3.66-21.59-3.66-6.36,0-7.9-3.08-2.31-4.43,12.72-3.47,14.65-3.47,17.54.39,4.43,5.78,21.01,8.48,35.66,5.78,16.19-2.89,30.07-7.52,30.07-9.83,0-2.12-4.24-1.35-28.53,4.63-8.87,2.12-16.19,3.66-16.58,3.28-1.54-2.31-25.44-52.62-29.49-62.45-13.49-32.57-24.48-61.87-28.33-76.13-1.73-5.78-4.82-17.15-6.94-24.86-5.2-18.5-9.25-47.61-8.29-58.98.96-11.18,6.94-21.39,14.65-25.25,5.01-2.7,7.32-2.7,17.54-.77,6.55,1.35,11.95,2.7,12.34,3.08.39.19-3.66,5.01-9.06,10.6-5.4,5.78-10.41,11.76-10.99,13.68-.58,1.93-1.93,3.47-2.89,3.47s-1.73.96-1.73,2.12c0,.96-2.51,7.13-5.78,13.68-13.88,27.95-4.82,41.25,45.87,67.46,5.01,2.7,8.09,5.59,8.09,7.71s1.73,6.94,3.85,11.18c2.31,4.63,3.85,11.37,3.85,17.54,0,8.09.96,11.18,5.78,17.15,4.24,5.2,5.78,9.44,5.78,14.65,0,7.71,3.85,15.23,11.18,21.97,2.31,2.31,4.82,6.36,5.4,9.25.77,2.89,2.31,6.36,3.47,7.9,3.08,4.05,20.43,17.54,22.55,17.54,3.66,0,1.54-5.01-5.2-12.53-3.85-4.24-8.29-10.41-9.83-13.49-1.73-3.28-5.78-10.02-9.06-15.23-3.28-5.2-5.97-9.83-6.17-10.6,0-.58-1.54-4.24-3.08-7.9-1.73-3.66-5.59-14.07-8.48-23.13-7.52-23.32-10.6-30.65-12.91-30.26-.96.19-2.31-.77-2.7-2.12-1.73-4.43,3.47-2.31,10.6,4.43,7.32,6.94,10.02,8.29,10.02,4.82,0-4.43-11.56-13.49-26.79-21.2-9.06-4.43-18.89-10.02-22.16-12.14-14.84-10.6-25.63-19.47-29.87-24.86l-4.63-5.78,4.63-9.83c2.51-5.59,5.4-11.37,6.55-12.91,1.16-1.54,3.85-6.17,5.78-10.41,4.24-8.29,37.01-42.98,38.74-41.05.77.58-1.16,4.05-4.05,7.32-4.24,5.2-5.01,7.52-3.85,13.11,2.12,11.37,2.12,34.89.19,32.96-1.16-1.16-2.7-1.93-3.85-1.93s-.96.96.39,2.31c3.47,3.47,2.89,4.63-2.89,4.43-8.87,0-7.13,4.24,2.31,5.4,12.91,1.93,23.9,8.09,35.08,20.24,5.59,5.78,10.79,10.02,11.56,9.44.58-.77-.39-3.08-2.31-5.2-4.82-5.4-2.12-7.32,4.82-3.28,3.66,2.31,5.97,2.7,6.75,1.16.77-.96.96-2.12.77-2.31-.39-.19-3.66-1.93-7.13-3.66-3.47-1.93-7.52-2.89-9.25-2.12-3.66,1.35-9.83-4.24-14.26-13.11-5.78-11.18-11.56-30.07-11.56-37.78s6.36-27.56,11.18-34.89c1.54-2.31,4.82-9.83,7.13-16.38,4.05-10.99,5.01-12.14,12.72-15.23,12.91-5.01,15.61-4.43,20.62,4.43,6.17,10.6,21.97,18.12,33.73,16.38,14.84-2.51,27.37-15.23,25.25-26.02-1.16-5.2-1.73-5.78-3.08-3.28-.96,1.73-1.93,5.59-2.31,8.48-.19,3.08-1.54,5.01-2.89,4.63-1.35-.19-1.93.39-1.35,1.35.77.96-1.35,3.66-4.63,5.97-3.08,2.31-5.78,3.66-5.78,2.89,0-.58-1.73-.19-3.85.96-3.08,1.54-4.63,1.16-8.09-2.31-2.89-2.89-3.85-3.28-2.89-.96.58,1.73.39,3.28-.39,3.28-.96,0-2.12-.96-2.51-2.12-.96-2.7,10.41-26.79,12.72-26.79.96,0,2.89-1.54,4.24-3.28,1.35-1.93,2.89-2.89,3.66-2.12,1.73,1.54-9.06,20.82-10.79,19.66-1.93-1.16-4.43,6.75-2.89,8.48.77.58,3.28-.96,5.59-3.47,5.4-5.97,15.03-25.06,12.72-25.06-.96,0-1.35-3.08-.96-6.75.58-3.66.19-6.36-.77-5.78-.96.58-1.16,2.51-.58,4.43.96,2.7.77,2.89-1.54,1.16-1.54-1.16-4.05-2.12-5.59-2.12-1.54-.19-4.43-.77-6.36-1.54-1.93-.77-3.28-.77-3.08.19.58,3.85-.39,5.4-1.93,3.08-.96-1.73-1.73-.39-1.93,3.85-.39,3.47-.58,7.9-.77,9.64-.19,1.93-.96,3.47-1.73,3.47-2.7,0-7.71,11.95-5.78,13.88,1.16,1.16,2.7-.58,4.24-5.01,1.16-3.85,3.08-6.94,4.05-6.94,3.08,0,1.93,5.01-2.89,12.14-3.08,4.63-4.05,7.13-2.51,7.71,1.35.39,1.93,1.35,1.16,1.93-1.54,1.73-13.3-6.94-13.3-9.83,0-1.16-.77-2.31-1.93-2.31-.96,0-1.93-1.16-1.93-2.51,0-1.54-1.54-4.05-3.47-5.78-3.08-2.7-4.63-2.89-13.88-.58-13.3,3.08-19.08,6.55-20.62,12.72-.58,2.7-3.08,8.67-5.59,13.49-2.31,4.82-4.82,10.41-5.59,12.53-.96,2.89-1.54,3.08-2.7,1.16-3.08-5.01,0-15.23,6.75-22.36,8.09-8.67,8.67-13.49.77-5.78-3.08,3.08-5.78,4.82-5.97,3.66,0-.96-.58-4.05-.96-6.94-.96-5.78,4.24-10.22,9.64-8.09,1.73.58,3.08.39,3.08-.77s2.51-2.51,5.78-3.28c3.08-.58,6.17-2.89,6.75-4.82,1.73-5.78,23.13-18.89,32.77-20.24,8.09-1.35,12.53-.39,12.53,2.51,0,.77-4.05,1.54-9.06,1.73-5.59.19-11.18,1.93-14.26,4.24-2.89,2.12-7.52,4.43-10.22,5.2-2.7.58-5.4,1.93-5.97,2.7-1.54,2.51,11.37,1.16,14.26-1.54,1.35-1.35,3.85-2.12,5.4-1.54,1.54.58,2.31.39,1.73-.58-1.16-1.73,4.24-3.85,15.23-6.55,1.16-.19,2.89-.96,3.85-1.54,1.16-.58,4.63-.96,7.71-.77,3.28,0,7.71-.39,10.22-1.35,4.63-1.54,14.65,3.28,12.91,6.17-.58.96-.19,2.12.96,2.89.96.58,1.93-.39,1.93-2.31,0-3.66,10.41-9.64,15.23-8.67,1.35.39,2.12,0,1.54-.96-.58-.96,4.05-1.73,10.41-1.93,6.17,0,11.37.58,11.37,1.73ZM172.45,24.76c-3.08,7.71-8.09,9.83-5.78,2.51,1.35-4.63,6.75-11.56,7.9-10.22.39.39-.58,3.85-2.12,7.71ZM180.35,21.1c-.77,1.54-2.12,2.89-3.28,2.89-1.35,0-1.35-1.16,0-4.05,2.51-4.43,5.01-3.66,3.28,1.16ZM317.77,74.88c0,1.54-.77,3.47-1.93,4.05-.96.58-1.93-.58-1.93-2.7,0-2.31.96-4.05,1.93-4.05,1.16,0,1.93,1.16,1.93,2.7ZM88.22,88.37c-1.73,1.54-1.93,1.35-.96-1.35.58-1.93,1.35-4.63,1.35-5.78.19-1.35.58-.77,1.16,1.35.58,1.93-.19,4.43-1.54,5.78ZM298.11,85.48c.58,1.54-.19,2.31-1.73,1.73-1.35-.39-2.89-1.93-3.28-3.28-.58-1.54.19-2.31,1.73-1.73,1.35.39,2.89,1.93,3.28,3.28ZM252.62,86.63c0,.96-.96,2.12-2.12,2.51-1.16.39-2.12-.77-2.12-2.51s.96-2.89,2.12-2.51,2.12,1.54,2.12,2.51ZM23.27,92.8c-5.78,2.12-9.25,14.84-9.06,32.57.77,42.21,20.82,100.99,67.84,198.91,2.7,5.59,4.43,10.6,4.05,11.18-1.73,1.73-7.13-1.54-10.22-6.17-2.51-3.85-2.51-4.63-.19-4.63,1.54,0,3.28,1.16,3.66,2.31.58,1.35,1.16,1.54,1.16.58.19-3.28-2.89-6.94-6.36-7.52-2.12-.19-5.59-5.4-9.25-13.88C25.39,214.42,9.97,169.32,8.04,138.29c-.77-12.91-.39-18.7,1.35-20.82,1.35-1.54,1.54-2.89.58-2.89-3.28,0-2.12-7.71,1.54-10.41,2.7-1.73,3.28-3.08,1.73-4.05-1.35-.77,0-3.08,4.05-5.97,3.47-2.51,6.75-4.05,7.32-3.47.58.77,0,1.73-1.35,2.12ZM86.48,94.73c0,5.01-3.08,9.25-4.63,6.55-.77-1.16-.39-2.12.77-2.12,1.35,0,1.73-1.54.96-3.85-.77-2.12-.39-3.85.77-3.85s2.12,1.54,2.12,3.28ZM190.56,95.5c0,3.47-.39,3.66-2.89,1.73-2.89-2.31-2.31-5.78,1.16-5.78.96,0,1.73,1.93,1.73,4.05ZM232,97.04c.58.96.19,2.31-.96,3.08-.96.58-1.93-.19-1.93-1.73,0-3.47,1.16-4.05,2.89-1.35ZM419.54,100.32c.77-.39,1.54,3.28,1.54,8.29.39,8.67.19,9.25-4.24,8.29-5.4-.96-5.4-.58-1.73-9.25,2.12-5.01,2.12-6.55.39-5.97-1.16.39-3.08,3.28-4.24,6.36-.96,3.08-1.93,5.97-2.12,6.36-.39.19-2.31-1.16-4.63-3.28l-4.24-3.85,4.63-2.51c2.31-1.16,5.78-3.85,7.32-5.78,2.51-2.89,3.08-3.08,4.43-.58.96,1.54,2.12,2.51,2.89,1.93ZM408.36,98c0,1.93-13.68,9.06-15.42,7.9-3.47-2.12-2.12-4.24,4.43-6.36,6.94-2.12,10.99-2.7,10.99-1.54ZM372.31,112.07c4.82,13.3,3.85,14.84-1.73,2.7-5.2-11.56-5.2-11.76-3.08-11.76.77,0,3.08,4.05,4.82,9.06ZM429.94,110.72c5.01,7.32,4.63,9.06-1.73,7.32-1.16-.39-6.17-11.95-6.36-14.65-.19-2.31,3.85,1.16,8.09,7.32ZM89.57,132.31c1.73,5.59,4.24,11.37,5.4,12.91,1.73,2.31,1.35,2.51-1.73,1.35-2.12-.96-5.78-2.12-8.09-2.51-4.43-.96-6.36-6.36-2.31-6.36.96,0,1.35-.96.77-1.93-1.16-1.93.58-13.49,1.93-13.49.39,0,2.12,4.63,4.05,10.02ZM374.05,134.82c-1.35,1.93-1.54,3.08-1.93,9.44-.58,5.59-2.12,2.89-3.08-5.2-.58-3.85-.19-7.13.77-7.13s1.35-1.54.58-3.47c-.96-2.7-.58-2.51,1.93.58,1.54,2.12,2.31,4.63,1.73,5.78ZM380.99,130.58c.39,2.31-.19,2.89-2.31,2.12-4.24-1.54-5.78-6.94-1.73-6.17,1.93.39,3.66,2.12,4.05,4.05ZM402.96,129.03c.19,2.12-13.49,4.82-17.15,3.47-1.35-.58-2.51-2.31-2.51-3.85,0-2.12,2.31-2.51,9.64-2.12,5.4.39,9.83,1.35,10.02,2.51ZM400.65,135.78c0,.96-1.73,1.73-3.85,1.35-5.97-.96-6.94-3.28-1.35-3.28,2.89,0,5.2.77,5.2,1.93ZM409.32,139.06c-.39,3.08-.77,10.02-.77,15.42-.19,5.97-1.16,10.22-2.31,10.22-1.35,0-1.93-4.63-1.54-13.11.39-7.13,0-14.07-.77-15.42-1.16-1.54-.39-2.31,2.31-2.31,3.08,0,3.66.96,3.08,5.2ZM387.73,138.86c1.73.77,3.47,2.7,3.47,4.43.19,2.7.39,2.7,1.16-.19,1.16-4.43,9.06-3.28,9.83,1.35.39,1.73,0,2.89-.96,2.31-.77-.58-1.54,6.36-1.35,15.42,0,10.41-.77,17.15-2.31,18.7-1.54,1.73-1.73,3.47-.19,5.97,1.54,2.89,1.35,4.05-.96,5.59-2.7,1.73-2.7,2.31-.19,6.17,3.28,5.2,2.12,8.48-2.89,7.52-1.73-.39-5.78-.77-9.06-.77-4.63-.19-5.2-.58-2.89-2.31,2.31-1.54,2.12-1.73-1.16-.77-4.63,1.16-7.9-4.43-9.25-16.58-.96-8.29,0-9.83,7.9-13.11,3.28-1.35,6.55-3.85,7.13-5.4,1.54-3.66-2.12-8.29-6.36-8.29-1.73,0-5.2-1.93-7.9-4.05-4.24-3.47-4.43-3.85-.77-2.7,3.47.96,4.05.19,4.24-5.01.19-6.55,3.66-11.95,6.94-10.41,1.16.58,3.66,1.54,5.59,2.12ZM228.15,160.84c-.58.96.19,1.93,2.12,1.93,1.73,0,8.48,2.7,15.03,5.97,6.36,3.28,17.15,7.71,23.51,9.64,6.55,2.12,15.23,5.01,19.27,6.75l7.32,3.08-5.2,2.7c-5.01,2.7-7.71,8.09-2.7,5.97,16.58-7.32,26.21-10.99,29.3-10.99,2.31,0,9.25-1.35,15.42-3.08,6.36-1.73,13.68-3.28,16.38-3.47,3.66-.19,5.4-1.73,6.75-6.17,1.16-3.28,3.28-7.71,4.82-10.22,2.51-3.85,3.66-4.05,8.29-2.31,3.08,1.16,8.09,2.12,11.37,2.12,9.44,0,3.28,5.2-8.29,6.75l-9.44,1.35-.39,9.83c-.19,5.59-.19,11.95,0,14.26.19,5.4-1.16,5.59-6.55.39-2.7-2.51-4.63-3.28-5.59-1.93-.58,1.16-.19,2.12.77,2.12,1.16,0,2.12,1.16,2.12,2.51,0,5.59-42.21,22.55-55.89,22.55-5.78,0-8.09-1.35-13.49-7.9-3.66-4.24-12.72-11.18-20.24-15.23-10.22-5.78-15.03-10.02-20.24-17.35-3.66-5.59-9.06-11.76-11.95-13.88-4.63-3.08-5.78-7.32-2.31-7.32.58,0,.39.77-.19,1.93ZM417.22,163.15c1.54,2.51-7.71,11.18-11.95,11.18s-2.31-4.43,2.7-6.75c2.31-.96,3.85-3.08,3.28-4.24-1.16-3.08,4.05-3.28,5.97-.19ZM368.27,183.58c-.77,9.64,2.12,18.5,7.9,23.32,5.2,4.24,23.51,2.89,26.41-1.73.96-1.54,2.31-2.12,3.08-1.35,2.12,1.93-2.7,6.55-8.48,8.09-7.52,1.93-9.64,4.24-8.48,9.83.58,3.47,2.51,5.2,6.75,5.97,13.3,2.7-4.24,4.43-24.67,2.51-.96-.19,1.16-1.16,4.82-2.51,5.59-1.93,6.94-3.47,7.32-8.48.39-4.63-.19-6.36-3.28-7.32-1.93-.58-5.97-2.89-8.67-5.01-4.63-3.66-5.01-5.2-5.01-18.31,0-7.9.77-14.26,1.73-14.26.77,0,1.16,4.24.58,9.25ZM413.37,183.19c-1.93,1.73-5.59,2.7-9.25,2.31l-6.36-.58,8.67-4.82c6.17-3.66,8.87-4.24,9.25-2.51.39,1.35-.77,3.85-2.31,5.59ZM414.14,196.49c-2.7,3.28-14.46,3.28-14.46,0,0-2.7,13.11-6.75,15.23-4.63.96.96.77,2.89-.77,4.63ZM287.9,225.79c3.85-.19,5.78.58,6.36,2.7.39,2.7-1.35,2.89-12.53,2.31-14.26-.96-26.02,1.73-18.89,4.24,8.29,2.7,13.49,6.55,14.07,10.41.58,3.08-.39,4.05-3.28,4.05-5.01,0-5.01,1.93-.19,8.29,4.05,5.2,5.2,12.91,1.93,12.91-1.16,0-2.51-1.54-3.08-3.47-3.08-9.83-8.67-19.47-12.14-20.62-2.31-.58-4.05-2.12-4.05-3.08,0-2.31,1.93-2.12,9.44.39,10.02,3.47,9.06.39-1.54-4.82-14.84-7.71-16.77-6.94-18.5,5.78-.77,5.97-.77,11.37,0,11.95,2.12,2.12,4.82-4.24,3.85-8.67-1.54-6.75,2.31-6.94,5.59-.39,4.05,8.29,4.24,24.86.19,24.86s-5.78-5.2-3.28-8.29c2.31-2.89,2.31-10.99,0-10.99-.77,0-1.54,1.73-1.54,3.66,0,5.97-4.05,6.94-8.09,2.12-2.7-3.47-3.47-6.36-2.51-10.99.58-3.47.39-6.36-.58-6.36-2.89,0-27.18,20.43-39.9,33.34-13.3,13.68-24.09,29.3-29.1,41.82-1.93,4.82-4.24,9.25-5.4,10.02-1.54.96-1.35,2.12.19,3.66,1.73,1.73,1.54,2.89-.58,5.2-2.31,2.12-3.47,2.31-5.2.58-2.7-2.7,2.31-18.12,10.41-31.61,3.08-5.01,5.59-9.64,5.59-10.41,0-3.66,29.1-34.5,45.68-48.38,14.84-12.34,53-26.02,59.56-21.2.96.77,4.43,1.16,7.52.96ZM297.53,240.44c.19,3.85-1.16,7.13-3.28,8.67-4.82,3.47-4.43,6.94,1.35,11.18,2.51,1.93,3.85,4.05,2.89,4.63-.96.58-.77,3.28.77,6.17q2.7,5.01-3.66,4.05c-3.47-.58-6.75-.19-7.32.77-.77,1.16,4.63,2.89,12.34,4.24,7.52,1.16,15.42,3.08,17.54,4.24,3.47,1.93,3.08,2.51-4.24,11.18-4.24,5.2-7.71,10.22-7.71,11.37,0,.96-1.35,2.89-2.89,4.24-2.31,1.93-2.89,1.93-2.89,0,0-3.28,8.09-17.92,11.37-20.43,2.12-1.73.58-2.7-7.71-4.43-5.78-1.35-11.95-2.89-14.07-3.47-2.31-.58-3.08-.19-2.31,1.16.77,1.16,3.08,2.12,5.2,2.12,2.51,0,3.47.77,2.51,2.31s-.39,1.73,1.73.96c4.82-1.73,5.97,2.31,1.73,5.97-4.43,3.85-7.32,11.95-4.43,11.95,1.16,0,2.12-1.16,2.12-2.51,0-3.47,5.2-10.41,6.55-8.87.58.58-.19,3.85-1.93,7.13-2.12,4.43-4.63,6.36-9.06,7.13-6.75,1.16-12.14.58-14.07-1.54-4.24-4.05-16.19,1.73-16.19,7.9,0,1.73-1.16,2.31-3.08,1.54-1.54-.58-2.51-.39-1.93.58.58.96-.96,2.31-3.66,2.89-2.7.77-4.82,2.51-4.82,4.05s-.77,2.89-1.93,2.89c-3.66,0-1.93,4.24,4.63,10.79,5.97,5.97,6.36,7.13,4.43,12.34-1.73,4.63-1.54,6.17,1.35,9.44q3.47,3.85-1.93,3.28c-3.08-.39-9.83-.77-14.84-.96-5.2,0-8.87-.96-8.29-1.73.58-.96-1.73-1.35-5.2-.96-3.47.39-5.01,0-3.66-.58,1.16-.58,2.31-3.66,2.31-6.75s.96-5.59,1.93-5.59c3.66,0,13.49-8.29,13.49-11.37,0-1.54-2.31-5.4-5.2-8.29-3.28-3.47-4.63-6.17-3.28-6.94,3.28-2.31,2.12-10.79-1.73-14.46-4.24-3.66-9.44-4.24-14.65-1.54-2.51,1.54-3.28.96-3.47-2.12-.58-5.59-5.78-10.6-12.14-11.56-3.08-.39-5.2-.19-4.63.77.58.77.19,1.54-.96,1.54-2.51,0-6.36,6.94-7.9,14.46-.58,3.28-2.31,5.78-3.85,5.78s-4.05.77-5.2,1.54c-1.35.96-2.51,1.16-2.51.39,0-1.16,5.97-10.79,7.71-12.53.58-.58,3.47-4.63,6.55-9.06,3.08-4.63,6.36-7.71,7.52-6.94,1.16.77,1.35.19.39-1.35-.96-1.54,3.47-6.94,13.68-16.58,8.29-7.9,15.8-14.26,16.58-14.26s2.7-1.35,4.24-3.08c2.7-2.7,3.08-2.7,3.08,0,0,1.54-1.54,3.85-3.28,5.01-3.08,1.93-2.89,1.93.58.96,6.55-1.73,7.52,4.43,1.73,9.06-2.89,2.31-4.82,5.78-4.82,8.87,0,2.89-1.35,6.94-2.89,8.87-2.51,3.28-2.31,4.24,1.16,9.06,2.12,3.08,5.4,5.59,7.13,5.59,2.89,0,2.89.39.39,1.93-2.12,1.35-2.31,1.93-.39,1.93,1.54,0,4.24,1.93,5.97,4.05,2.89,3.47,4.43,3.85,11.37,2.7,4.43-.77,9.44-2.51,10.79-3.85,1.35-1.54,3.08-2.12,3.66-1.54.77.58.96-.77.39-3.08-.58-2.89.19-4.05,2.51-4.05,5.01-.19,9.25-4.24,10.41-10.22.77-4.43-.19-6.17-6.17-10.99-4.05-3.28-8.29-5.78-9.64-5.78-1.16,0-1.73-.77-1.16-1.73.58-.77.19-4.24-.77-7.52-.96-3.66-.96-6.55.19-7.13,1.93-1.35,6.17,8.09,4.63,10.6-1.73,2.7,6.75,9.25,10.41,8.29,4.05-.96,4.63-11.56.96-16.19-1.73-2.12-1.35-3.66,1.35-6.36,2.51-2.51,3.66-2.89,3.66-1.16,0,1.35.58,2.12,1.16,1.54,1.54-1.73-4.63-13.11-7.13-13.11-1.16,0-1.35-.96-.77-1.93.58-1.16,2.51-1.93,4.05-1.93,1.93,0,2.31.96,1.54,2.31-1.16,1.93-.96,1.93,1.35.19,2.7-2.12,11.56-4.24,13.3-2.89.58.39.96,3.47.96,6.75ZM349.38,237.16c.96,2.31.39,2.89-1.73,1.93-1.93-.58-5.2.96-8.48,4.43-2.89,2.89-6.55,5.78-7.9,6.36-1.73.58-2.7,3.85-2.89,8.87-.19,4.43-.77,8.48-1.54,9.25-1.93,2.12-7.13-3.08-7.13-7.13,0-2.12-.77-3.66-1.93-3.66-.96,0-1.93,1.73-1.93,3.85,0,6.17-4.24,13.68-7.52,13.11-3.66-.77-5.4-12.53-2.31-15.61,1.16-1.16,2.12-3.28,2.12-4.82,0-1.93-1.35-1.54-5.01,1.35-4.82,3.85-8.48,3.85-8.48.19,0-.96,3.08-3.85,6.94-6.55,5.78-3.85,7.71-4.43,10.6-2.51,2.12,1.35,3.28,3.47,2.7,5.01-.77,2.12-.39,2.12,1.73.39,1.93-1.54,3.08-1.73,4.05-.19.58.96,2.12,1.93,3.08,1.93,1.16,0,1.54-.77.77-1.93-.58-.96-.58-4.05.19-6.75.96-3.66,2.51-4.82,6.36-4.82,3.85-.19,11.76-2.7,16.77-5.59.19-.19.96,1.16,1.54,2.89ZM104.79,247.57c.77,3.08,2.12,6.17,3.08,6.75.96.77,1.73,2.12,1.73,3.47,0,1.16-1.35.19-3.08-2.12-3.47-5.01-7.13-16.38-4.63-14.84.96.58,2.12,3.66,2.89,6.75ZM336.66,256.43c-1.35,2.89-2.7,4.05-3.08,2.89-.96-3.08.96-7.9,3.28-7.9,1.35,0,1.16,1.93-.19,5.01ZM115.97,275.71c-.58,1.54-.19,2.7.77,2.7,1.16,0,2.89,2.31,4.24,5.2l2.51,5.4-5.01-4.82c-2.89-2.51-4.82-5.97-4.63-7.71.19-1.54-.39-4.24-1.35-5.78-1.35-2.51-1.16-2.51,1.35-.39,1.73,1.54,2.7,3.85,2.12,5.4ZM249.15,271.85c4.05,3.85,3.85,4.43-.77,3.28-4.82-1.35-5.2,2.31-.58,4.24,3.08,1.16,2.89,1.54-1.35,4.82-3.28,2.7-3.85,3.85-1.73,3.85,1.54,0,4.05-1.16,5.4-2.51,2.12-1.93,2.31-1.35,1.35,2.89-.96,4.24-.58,4.82,2.7,4.05,2.12-.58,3.85-2.31,3.85-3.85,0-1.93,1.16-2.31,3.85-1.54,4.43,1.35,5.4-2.51.96-4.05-3.08-1.35-4.05-6.55-.96-6.55,4.82,0,11.76,5.01,12.91,9.25,1.35,5.78-2.31,8.48-9.25,6.94-4.63-.77-5.01-.58-4.24,3.85.77,3.66,0,5.2-2.51,6.17-2.12.58-5.2,1.93-6.94,2.89-5.01,2.7-6.94,2.12-9.25-2.31-1.73-2.89-1.54-4.63.19-6.75,2.89-3.66.77-5.97-2.7-2.89-1.54,1.16-4.05,1.73-5.78.96-6.36-2.31-5.78-12.34.58-12.34,2.12,0,4.24-.96,4.82-1.93.58-1.16-.19-1.93-1.73-1.93-4.63,0-5.97-4.24-2.12-7.13,4.82-3.28,9.64-3.28,13.3.58ZM331.65,279.95c-.58,9.44-1.35,11.18-4.24,11.18-2.51,0-3.47-1.35-3.28-3.66.19-2.31-1.73-4.82-5.59-6.94-5.59-3.08-5.59-3.28-2.51-6.75,2.12-2.12,4.82-3.08,7.13-2.31,2.12.77,4.43.39,5.2-.77,2.7-4.43,3.85-1.35,3.28,9.25ZM255.52,281.3c0,1.54-.77,2.31-1.73,1.73-.77-.58-1.54-1.73-1.54-2.89,0-.96.77-1.73,1.54-1.73.96,0,1.73,1.35,1.73,2.89ZM133.32,303.46c1.54,1.54,4.24,5.4,6.17,8.67q3.28,5.78-.39,1.73c-1.93-2.12-4.82-4.43-6.17-4.82-1.35-.58-3.66-4.43-5.2-8.48-2.12-6.75-2.12-7.13.19-3.85,1.54,2.12,3.85,5.2,5.4,6.75ZM204.82,296.91c3.85,1.54,3.85,8.87.19,16.19-2.7,5.2-2.7,5.78,0,5.78,1.54,0,2.89-.77,2.89-1.93,0-2.31,7.9-7.52,13.11-8.67,5.2-.96,10.99,3.47,9.44,7.32-.58,1.73-4.43,4.63-8.48,6.36l-7.32,3.28,5.78,1.35c14.26,3.28,18.89,10.41,9.83,15.23-3.28,1.93-5.59,1.93-8.48.39-6.75-3.66-8.48-2.31-4.43,2.89,6.36,7.9,5.4,12.34-2.51,12.34-6.36,0-11.37-3.08-13.3-8.09-.77-1.93-1.35-2.12-3.47-.19-3.47,3.47-6.17,3.08-10.99-1.35-4.82-4.63-5.59-11.56-1.35-11.56s3.66-1.73-3.28-7.9c-3.85-3.85-5.4-6.36-4.05-7.71,2.51-2.51,6.55-.58,11.95,6.17,4.24,5.59,4.43,5.97,1.16,9.44-2.89,3.08-2.89,3.85-.77,3.85,1.54,0,4.05-1.16,5.4-2.51,1.93-1.93,3.08-1.54,5.4,1.93,3.85,5.78,6.94,5.59,5.97-.39-.77-3.85-.19-4.82,2.7-4.82,2.12,0,3.08-.96,2.51-1.93-.58-1.16-2.89-1.93-5.2-1.93-3.47,0-3.66-.39-1.35-3.08,2.31-2.89,2.12-3.08-1.73-1.93-3.47,1.16-4.24.77-4.24-3.08l-.19-4.43-2.51,4.63c-2.51,4.63-2.7,4.63-4.82.58-3.47-6.55-2.51-18.5,1.73-23.13,4.24-4.43,5.59-5.01,10.41-3.08ZM360.17,302.69c0,.39-1.73,0-3.85-1.16-2.12-1.16-3.85-2.51-3.85-3.08,0-.39,1.73,0,3.85,1.16s3.85,2.51,3.85,3.08ZM279.03,317.15l2.12,5.97,3.66-4.43c3.08-3.66,4.24-4.05,6.17-2.31,2.89,2.89.19,20.04-3.47,21.2-1.35.58-1.73-.58-1.16-3.08.58-2.31.19-4.05-1.16-4.05-1.16,0-2.12,1.35-2.12,2.89,0,3.85-1.93,3.66-5.01-.58-2.31-2.89-2.51-2.31-1.93,4.24.77,5.97,0,8.29-3.28,11.18l-4.24,3.66,6.36-1.16c4.82-.96,6.17-.58,6.17,1.73,0,1.73.96,3.08,2.12,3.08.96,0,1.73-1.93,1.35-4.24-.39-2.89.58-4.63,2.89-5.01,2.7-.58,3.28.77,3.28,6.17,0,8.67-6.36,16.19-10.79,12.53-1.54-1.16-2.7-3.47-2.7-4.82,0-3.47-.96-3.47-6.55.19-4.05,2.7-4.82,2.7-8.87-.58-5.2-4.24-3.85-11.95,2.31-11.95,3.66,0,4.24-4.82.39-4.82-3.47-.19-10.41-5.01-12.34-8.67-4.24-7.9,2.89-12.34,11.95-7.52,3.66,1.93,3.85,1.73,2.7-3.08-1.93-7.52.19-12.53,5.59-12.53,3.28,0,5.01,1.54,6.55,5.97ZM299.07,313.87c2.31,1.93,2.89,3.08,1.35,4.05-1.16.77-2.31.96-2.51.77-.39-.39-1.73-2.31-3.08-4.24-3.08-3.85-.58-4.24,4.24-.58ZM297.72,333.53c-1.73,4.43-4.82,1.35-3.66-3.66,1.93-8.67,3.28-10.22,4.05-4.63.39,3.08.19,6.75-.39,8.29ZM175.14,327.75c0,1.54-.77,2.51-1.54,1.93-.96-.58-1.73.19-1.73,1.73,0,2.12.77,2.31,2.51.77,4.05-3.47,6.36-.39,4.63,5.97-.96,3.28-.96,5.78-.19,5.78s1.54,1.16,1.54,2.7-1.35,2.12-3.47,1.73c-1.93-.58-2.89-2.12-2.51-3.47.58-1.35,0-3.08-1.35-4.05-1.54-.96-1.93-.58-.77,1.16.96,1.54.58,2.12-1.16,1.54-3.08-.96-3.66-12.72-.96-16.58,2.31-3.28,5.01-2.89,5.01.77ZM49.09,342.97c-.77,2.7-.39,4.82.77,4.82.96,0,1.93-1.93,1.93-4.05,0-3.47.77-4.05,5.4-3.08,6.55,1.54,65.92,14.07,85.19,18.12,7.9,1.54,17.92,3.66,22.16,4.63,4.24.96,10.79,2.31,14.46,2.89,3.66.58,12.34,2.31,19.27,3.85,6.94,1.54,22.16,4.82,33.73,7.52,11.76,2.51,31.42,6.55,43.94,8.87,18.89,3.66,22.55,4.82,22.55,7.9,0,1.93-.19,3.47-.58,3.47s-10.22-1.73-21.78-3.85c-11.56-1.93-41.82-7.13-67.27-11.56-25.44-4.24-54.93-9.44-65.53-11.56-10.6-1.93-32.19-5.78-48.18-8.67-43.94-7.52-40.09-6.36-38.74-12.72.58-3.08.19-5.59-.77-5.59-1.16,0-1.93,2.12-1.93,4.63,0,3.66-.96,4.63-3.85,4.43-2.89-.19-3.85-1.73-3.85-6.17-.19-4.82-.39-5.2-2.12-2.31-.96,1.73-1.35,4.24-.58,5.4.77,1.35.19,1.93-1.35,1.35-3.08-.96-4.43-6.17-2.89-10.41.58-1.54,3.28-2.7,6.17-2.7,4.43,0,4.82.58,3.85,4.82ZM296.57,342.2c0,.96-1.54,1.73-3.28,1.54-2.12,0-2.51-.58-.96-1.16,1.16-.39,1.73-1.93,1.16-2.89-.77-1.35-.39-1.54.77-.77,1.35.77,2.31,2.12,2.31,3.28ZM476.78,356.85c2.89.96,1.54,1.54-5.2,2.12-10.02.58-10.99,1.54-5.97,5.4,5.59,3.85,1.54,5.01-6.17,1.73-8.09-3.28-10.6-2.7-6.75,1.93,1.93,2.31,1.93,2.89-.77,2.89-1.73,0-3.08-.77-3.08-1.73s-1.73-2.12-3.85-2.7c-4.63-1.16-3.66-4.82,3.47-14.26l4.63-6.17,9.83,4.63c5.59,2.51,11.76,5.2,13.88,6.17ZM304.86,355.5c2.12,0,3.28.96,2.7,2.31-.39,1.35-1.73,2.31-2.89,2.12-1.35-.39-1.73.77-.96,2.7.77,2.12.58,2.7-.96,1.73-1.35-.77-2.31-.39-2.31.58,0,1.16-2.12,2.12-4.82,2.12-2.89,0-4.43-.96-3.85-2.51,4.43-12.53,5.01-13.49,7.13-11.37,1.35,1.35,3.85,2.31,5.97,2.31ZM80.51,364.17c.19.39-.39,1.93-1.54,3.28-1.16,1.35-5.78,7.13-10.02,12.53-7.52,9.83-11.56,11.95-16.58,8.67-3.85-2.31,5.2-19.85,9.64-18.7,12.53,3.66,12.34,3.66,7.13-.96-2.7-2.31-3.47-3.47-1.93-2.7,2.51,1.35,2.51,1.16,0-2.12-2.7-3.28-2.51-3.47,4.82-2.12,4.24.77,8.09,1.73,8.48,2.12ZM443.05,369.96c1.93,2.51,1.73,2.89-1.54,2.89-2.89,0-3.85-.96-3.08-2.89.77-1.54,1.35-2.89,1.73-2.89.19,0,1.54,1.35,2.89,2.89ZM463.48,373.81c1.73,4.43-2.89,8.67-9.25,8.67s-6.55-4.43,0-5.4c2.31-.39,4.24-1.93,4.24-3.47,0-3.66,3.66-3.47,5.01.19ZM446.9,380.36c0,3.08-2.31,4.05-13.88,5.97-7.71,1.16-17.54,3.08-21.78,4.24-4.24.96-16.38,3.47-26.98,5.4-10.6,1.93-24.09,4.82-29.87,6.55-16.96,4.82-29.68,3.66-31.42-2.89-.77-3.08.19-3.47,9.25-3.47,5.59.19,17.15-1.16,25.44-2.7,8.29-1.73,21.59-4.05,29.49-5.4,7.9-1.16,23.51-4.24,34.69-6.55,25.44-5.59,25.06-5.59,25.06-1.16ZM456.54,407.35c0,22.16-.58,23.51-9.06,21.78-4.24-.77-4.43-1.73-4.43-15.8s.39-15.03,4.43-16.19c3.47-.96,3.85-1.54,1.35-3.08-2.51-1.54-2.51-1.93.39-1.93,1.73,0,3.66-.77,4.43-1.73.58-1.16-1.93-1.54-6.17-.96-5.59.77-6.55.58-4.43-.96,1.54-1.16,5.2-2.12,8.29-2.12h5.2v21.01ZM316.23,395.21c.58.39,1.73-.39,2.12-1.54.58-1.54,1.16-1.16,1.16.77.19,1.93-1.16,3.47-2.7,3.47s-2.89.77-2.89,1.73-1.73,1.35-3.85.77c-2.12-.58-3.85-1.73-3.85-2.7s-1.35-1.16-2.89-.58c-1.73.77-2.89,0-2.89-1.93,0-2.51,1.35-2.89,7.32-1.93,3.85.58,7.71,1.54,8.48,1.93ZM327.41,408.5c.58.39.58,8.29,0,17.73l-.96,16.96h-5.78q-5.78,0-6.36-12.14c-.39-10.02,0-12.14,2.89-13.3,1.93-.77,4.63-2.51,5.97-3.85,2.12-2.12,1.93-2.51-1.16-2.51-5.4,0-10.02-1.93-10.02-4.24,0-1.73,12.14-.58,15.42,1.35ZM316.81,414.86c-.58.58-2.12,0-3.47-1.35-1.73-1.93-1.54-2.12,1.16-.96,1.93.58,2.89,1.73,2.31,2.31Z"/>
  <path class="cls-1" d="M218.12,8c-1.35.39-3.85,3.85-5.59,7.52-1.73,3.47-3.66,6.17-4.43,5.59-.77-.39-.96,1.73-.58,5.01.77,5.59,4.24,7.9,4.24,2.89,0-4.63,9.06-21.01,10.41-18.89.77,1.16-1.35,6.94-4.43,12.91-4.24,7.71-5.01,10.6-2.89,10.6,1.54,0,2.7.77,2.7,1.73,0,1.16-3.08.58-6.75-.96-8.87-3.66-11.76-3.66-8.67.19,1.35,1.54,3.66,2.89,5.2,2.89,1.93,0,2.31,1.16,1.54,3.85-1.16,3.47-.77,3.66,4.24,1.73,2.89-1.16,9.25-2.7,13.88-3.28,5.97-.96,8.67-2.31,9.06-4.63.39-2.7-.19-3.08-3.08-1.54-1.93,1.16-5.97,1.93-8.67,1.93-4.63,0-4.82-.19-2.12-3.08,1.73-1.54,3.08-4.24,3.08-5.78s.96-2.7,2.31-2.7c1.16,0,.77-1.54-1.16-3.66-2.12-2.31-2.7-4.05-1.35-5.01,1.16-.58,2.12-.19,2.12.77,0,1.16.96,2.12,1.93,2.12,1.16,0,.19-2.7-2.31-5.78-4.24-5.97-4.63-6.17-8.67-4.43ZM224.48,22.45c-.58,1.35-1.73,4.05-2.31,5.78-1.35,3.85-4.63,4.63-4.63,1.35s3.85-9.44,5.97-9.44c1.16,0,1.54,1.16.96,2.31Z"/>
  <path class="cls-1" d="M206.75,10.69c-.77,1.35-.58,1.73.77.96.96-.58,2.51,0,2.89,1.16.77,1.73,1.16,1.93,1.16.19.19-3.28-3.08-4.82-4.82-2.31Z"/>
  <path class="cls-1" d="M358.24,32.47c0,2.89,7.13,5.59,10.02,3.85,2.51-1.73-2.31-6.55-6.36-6.55-2.12,0-3.66,1.16-3.66,2.7Z"/>
  <path class="cls-1" d="M324.71,38.45c-1.73,4.63,12.53,9.25,15.23,5.01,1.35-2.31-6.36-7.9-10.79-7.9-1.73,0-3.85,1.35-4.43,2.89Z"/>
  <path class="cls-1" d="M272.48,43.27c-.58.96.19,1.93,1.73,1.93,1.73,0,3.08-.96,3.08-1.93,0-1.16-.77-1.93-1.73-1.93-1.16,0-2.51.77-3.08,1.93Z"/>
  <path class="cls-1" d="M132.16,67.74c-5.59,2.89-12.34,15.23-9.83,17.73.77.58,1.73-.19,2.31-1.73.58-1.54,4.24-6.17,8.48-10.41,9.83-9.83,9.64-11.18-.96-5.59Z"/>
  <path class="cls-1" d="M190.18,80.27c-3.08.96-5.4,2.7-5.4,3.66,0,.77,1.35,1.16,3.08.39,1.73-.58,4.63-1.16,6.75-1.35,2.12-.19,3.85-.96,3.85-2.12.19-2.7-2.31-2.89-8.29-.58Z"/>
  <path class="cls-1" d="M36.76,93.38c-7.13,4.43-11.37,12.72-12.91,25.44-.77,6.94-.58,7.32.77,2.89,1.16-3.08,3.47-6.94,5.4-8.48,1.93-1.54,2.31-2.31,1.16-1.54-1.54.77-2.51,0-2.51-1.73,0-3.85,11.18-16.58,14.65-16.58,1.54,0,2.7-.96,2.7-1.93,0-2.89-2.12-2.31-9.25,1.93Z"/>
  <path class="cls-1" d="M94.96,99.93c-1.93,5.2.19,21.01,2.89,21.97,2.12.77,2.31,0,.96-2.7-.77-2.12-1.35-7.71-1.16-12.91.39-8.87-.77-11.56-2.7-6.36Z"/>
  <path class="cls-1" d="M173.41,100.89c-1.93,1.35-1.35,1.73,2.31,1.54,2.7-.19,4.43-.96,3.85-1.93-1.16-1.73-2.89-1.73-6.17.39Z"/>
  <path class="cls-1" d="M130.24,103.21c1.35,1.35,2.89,1.93,3.47,1.35s-.39-1.73-2.31-2.31c-2.7-1.16-2.89-.96-1.16.96Z"/>
  <path class="cls-1" d="M99.98,113.42c0,2.89,3.47,5.97,5.01,4.43,1.35-1.35-1.35-7.13-3.28-7.13-.96,0-1.73,1.16-1.73,2.7Z"/>
  <path class="cls-1" d="M134.67,112.65c0,.96,1.73,2.7,3.85,3.85,4.24,2.31,5.2.19,1.54-3.47-2.7-2.7-5.4-3.08-5.4-.39Z"/>
  <path class="cls-1" d="M56.61,115.16c-4.82,5.78-11.56,18.7-9.83,18.7.39,0,3.08-3.66,6.17-8.29,3.08-4.43,6.94-9.06,8.48-10.41,2.51-2.12,2.51-2.31,0-2.31-1.54,0-3.85.96-4.82,2.31Z"/>
  <path class="cls-1" d="M145.27,114.58c-.58.96.19,1.93,1.73,1.93,1.73,0,3.08-.96,3.08-1.93,0-1.16-.77-1.93-1.73-1.93-1.16,0-2.51.77-3.08,1.93Z"/>
  <path class="cls-1" d="M152.01,118.05c0,2.12,8.87,6.17,13.49,6.17,2.12,0,3.85-.96,3.85-1.93,0-1.16-2.12-1.93-4.82-1.93s-4.82-.96-4.82-1.93c0-1.16-1.73-1.93-3.85-1.93s-3.85.77-3.85,1.54Z"/>
  <path class="cls-1" d="M232.19,120.75c-3.66,2.7-5.97,3.47-6.36,2.12-.96-2.89-11.37.58-12.72,4.05-.58,1.35-3.85,2.51-7.13,2.7-8.29.19-12.72,4.24-4.63,4.24,10.02,0,39.32-11.56,39.32-15.42,0-2.89-2.31-2.31-8.48,2.31Z"/>
  <path class="cls-1" d="M144.31,121.9c0,1.73,11.37,7.71,15.42,8.29,6.75.77,13.49-.39,13.49-2.12,0-1.16-3.28-1.93-7.13-1.93-4.05,0-9.83-1.35-12.91-2.89-5.97-3.28-8.87-3.66-8.87-1.35Z"/>
  <path class="cls-1" d="M197.89,121.71c1.35.58,3.08.39,3.66-.19.77-.58-.39-1.16-2.51-.96-2.12,0-2.7.58-1.16,1.16Z"/>
  <path class="cls-1" d="M61.43,125.18c0,.96.96,3.28,1.93,4.82.96,1.54,1.93,1.93,1.93.96,0-1.16-.96-3.28-1.93-4.82-.96-1.54-1.93-2.12-1.93-.96Z"/>
  <path class="cls-1" d="M98.82,129.03c-1.35,3.47,2.31,13.3,6.17,16.58,2.12,1.73,2.7,1.54,2.7-.77,0-1.73-.77-3.66-1.93-4.24-.96-.58-1.93-3.66-1.93-6.75,0-6.36-3.28-9.44-5.01-4.82Z"/>
  <path class="cls-1" d="M107.69,135.2c.19,3.85,5.4,10.6,6.55,8.67,1.54-2.51-1.93-10.02-4.63-10.02-1.16,0-1.93.58-1.93,1.35Z"/>
  <path class="cls-1" d="M46.97,152.93c-.58.96-.39,2.31.58,2.89.96.58,1.73-.19,1.73-1.73,0-3.28-.58-3.66-2.31-1.16Z"/>
  <path class="cls-1" d="M36.37,157.17c0,3.66,8.67,11.95,11.56,10.99,1.16-.39-.96-3.66-4.82-7.32-4.43-4.24-6.75-5.59-6.75-3.66Z"/>
  <path class="cls-1" d="M205.98,169.7c-3.66,1.35-9.25,2.51-12.14,2.51-6.36.19-20.62,7.13-20.62,10.02,0,1.35,1.35,1.54,3.47.58,1.73-.77,8.29-1.35,14.46-.96,7.52.19,10.99-.39,10.99-1.93s-2.51-1.93-7.71-1.16c-4.43.58-7.32.19-6.55-.77.58-.96,4.82-1.73,9.64-1.73,8.87,0,20.04-4.43,20.04-7.71,0-2.51-3.08-2.12-11.56,1.16Z"/>
  <path class="cls-1" d="M54.1,170.86c-1.54,1.54-.19,3.66,5.97,8.48,9.64,7.71,26.21,16.96,27.75,15.61.39-.58-1.93-2.51-5.59-4.24-10.79-5.59-24.86-17.15-23.9-19.66,1.35-3.08-1.16-3.28-4.24-.19Z"/>
  <path class="cls-1" d="M61.43,172.4c0,.96.96,1.93,2.12,1.93.96,0,1.35-.96.77-1.93-.58-1.16-1.54-1.93-2.12-1.93-.39,0-.77.77-.77,1.93Z"/>
  <path class="cls-1" d="M67.98,177.8c1.93,3.08,18.5,12.72,19.66,11.37.58-.58-2.51-3.28-6.94-6.17-10.02-6.36-14.65-8.09-12.72-5.2Z"/>
  <path class="cls-1" d="M221.4,189.36c-15.42,1.93-33.73,11.56-43.37,23.13-8.29,10.02-3.85,9.83,6.36-.19,10.22-10.22,24.48-16.38,38.74-16.96,10.02-.58,13.68-1.54,13.68-3.66,0-1.73-8.87-3.08-15.42-2.31Z"/>
  <path class="cls-1" d="M57.77,194.76c1.35,1.73,4.63,3.85,7.13,4.82,2.7.96,4.24,2.31,3.47,3.08-1.35,1.35,2.31,6.36,4.82,6.36,4.43,0,.96-5.97-6.36-11.37-8.67-6.36-13.3-7.9-9.06-2.89Z"/>
  <path class="cls-1" d="M38.3,196.3c0,1.73.96,3.08,1.93,3.08,1.16,0,1.93-.77,1.93-1.73,0-1.16-.77-2.51-1.93-3.08-.96-.58-1.93.19-1.93,1.73Z"/>
  <path class="cls-1" d="M110.19,207.86c3.85,3.47,7.13,7.9,7.13,9.64s.96,3.08,1.93,3.08c1.16,0,1.93-1.35,1.93-2.89s.96-2.89,1.93-2.89c1.16,0,1.93-.96,1.93-1.93,0-1.16-1.35-1.93-2.7-1.93-1.54,0-5.2-2.12-8.09-4.82-2.89-2.7-6.55-4.82-8.09-4.82-1.93,0-.39,2.51,4.05,6.55Z"/>
  <path class="cls-1" d="M198.85,204.4c-3.47,1.73-6.36,3.85-6.36,4.82,0,2.7,3.08,2.12,5.78-1.16,2.7-3.28,6.75-4.05,4.82-.96-1.73,2.89.77,2.31,3.85-.77,1.54-1.35,2.12-3.08,1.54-3.85-1.73-1.73-2.7-1.54-9.64,1.93Z"/>
  <path class="cls-1" d="M45.05,216.92c4.05,11.56,8.67,21.01,8.67,16.96-.19-4.05-9.64-29.68-11.37-30.26-.96-.39.19,5.59,2.7,13.3Z"/>
  <path class="cls-1" d="M141.03,216.73c.77,8.87,3.28,16.58,8.87,27.75,7.9,16,23.9,35.85,25.83,32.57.77-1.16-.39-3.47-2.51-5.4-11.18-10.02-28.91-46.06-28.91-58.79,0-3.08-.96-6.17-2.31-6.94-1.54-.96-1.93,1.93-.96,10.79Z"/>
  <path class="cls-1" d="M231.23,209.21c-4.63,2.12-8.09,4.24-7.52,4.63,1.73,1.73,23.51-4.05,24.28-6.36,1.16-3.47-7.13-2.51-16.77,1.73Z"/>
  <path class="cls-1" d="M83.79,216.15c1.35,5.97,6.36,14.84,7.71,13.49.96-.96-6.75-18.7-8.09-18.7-.39,0-.39,2.31.39,5.2Z"/>
  <path class="cls-1" d="M227.57,221.93c.77,4.05,6.36,4.82,6.36.58,0-1.54-1.54-3.08-3.47-3.47-2.7-.58-3.47.19-2.89,2.89Z"/>
  <path class="cls-1" d="M53.72,226.56c0,.96.96,1.35,1.93.77,1.16-.58,1.93-1.54,1.93-2.12,0-.39-.77-.77-1.93-.77-.96,0-1.93.96-1.93,2.12Z"/>
  <path class="cls-1" d="M107.69,229.07c0,1.73.96,3.08,1.93,3.08,1.16,0,1.93-.77,1.93-1.73,0-1.16-.77-2.51-1.93-3.08-.96-.58-1.93.19-1.93,1.73Z"/>
  <path class="cls-1" d="M56.61,239.28c.58,11.18,23.71,67.65,24.09,58.98,0-2.31-8.67-23.13-19.47-46.64-5.01-10.79-3.28-12.72,2.12-2.31,2.12,4.43,4.24,7.9,4.82,7.9,1.16,0-3.08-12.14-5.01-14.46-.96-.96-1.73-3.28-1.73-5.01s-1.16-4.24-2.7-5.4c-2.31-1.93-2.7-.77-2.12,6.94Z"/>
  <path class="cls-1" d="M140.45,237.35c0,2.31.96,4.82,1.93,5.4,2.51,1.54,2.51-2.89,0-6.75-1.54-2.31-1.93-2.12-1.93,1.35Z"/>
  <path class="cls-1" d="M112.5,242.56c1.73,10.99,4.43,16.58,7.71,16.58,1.73,0,3.85,2.12,4.82,4.82.96,2.7,2.7,4.82,3.85,4.82s.77-2.31-.96-5.78c-1.54-3.08-2.89-6.75-2.89-8.29,0-1.35-1.35-4.24-2.89-6.36-2.7-3.47-2.7-3.28-1.93,3.08,1.16,7.32.19,5.97-5.59-8.67l-3.28-7.71,1.16,7.52Z"/>
  <path class="cls-1" d="M115.39,239.86c0,.96,1.35,1.93,3.08,1.93,1.54,0,2.31-.96,1.73-1.93-.58-1.16-1.93-1.93-3.08-1.93-.96,0-1.73.77-1.73,1.93Z"/>
  <path class="cls-1" d="M91.11,246.99c.96,3.28.58,5.59-1.16,6.55-1.73,1.16-1.35,1.73,1.54,1.73,3.28,0,3.85.96,3.08,6.17-.77,5.59-.58,5.97,2.12,3.85,2.51-2.12,3.47-1.73,5.97,2.89,1.73,3.28,2.89,4.24,3.08,2.31,0-1.73-2.51-6.75-5.78-10.99-3.08-4.43-5.78-10.22-5.78-12.91s-.96-4.82-2.12-4.82c-1.35,0-1.73,1.93-.96,5.2Z"/>
  <path class="cls-1" d="M144.31,248.15c0,4.24,20.43,31.61,22.36,29.87.58-.58-3.47-7.13-9.06-14.26-11.18-15.23-13.3-17.54-13.3-15.61Z"/>
  <path class="cls-1" d="M143.53,258.94c-.77.96-.39,2.31.58,2.89.96.77,2.31.39,2.89-.58.77-.96.39-2.31-.58-2.89-.96-.77-2.31-.39-2.89.58Z"/>
  <path class="cls-1" d="M174.37,259.71c.58,1.93,1.73,2.89,2.31,2.31.58-.58,0-2.12-1.35-3.47-1.93-1.73-2.12-1.54-.96,1.16Z"/>
  <path class="cls-1" d="M121.18,266.84c0,3.28,7.32,16.96,10.02,18.5,1.54.96,1.73.39.96-1.93-.77-1.93-.58-2.89.58-2.12,1.16.58,1.93,2.31,1.93,3.66,0,2.89,9.06,13.88,10.41,12.72.39-.58-2.31-5.97-6.17-12.14-3.85-6.36-7.32-10.22-8.09-9.06-.77,1.35-2.31-.39-3.85-3.85-2.51-6.17-5.78-9.44-5.78-5.78Z"/>
  <path class="cls-1" d="M148.16,265.88c.19,3.28,5.59,9.44,7.13,7.9.77-.58-.58-3.08-2.89-5.59-2.31-2.31-4.24-3.28-4.24-2.31Z"/>
  <path class="cls-1" d="M132.74,270.7c0,.96,1.35,1.93,3.08,1.93,1.54,0,2.31-.96,1.73-1.93-.58-1.16-1.93-1.93-3.08-1.93-.96,0-1.73.77-1.73,1.93Z"/>
  <path class="cls-1" d="M136.6,276.67c0,3.28,5.2,8.67,6.75,7.13.58-.58-.58-3.08-2.7-5.59-3.08-3.66-3.85-3.85-4.05-1.54Z"/>
  <path class="cls-1" d="M119.25,302.5c2.31,6.36,2.51,7.32.19,5.78-.96-.58-2.31-.19-2.89.58-1.35,2.12,5.78,8.48,12.91,11.56,6.94,2.89,6.75.19-.39-5.01-3.08-2.31-6.17-6.75-6.94-10.02-.77-3.08-2.12-6.17-3.08-6.75-.96-.77-.96.96.19,3.85Z"/>
  <path class="cls-1" d="M140.64,303.46c2.7,3.66,6.17,6.94,7.71,7.52,1.54.39.58-1.93-2.31-5.59-2.7-3.66-6.17-6.94-7.71-7.52-1.54-.39-.58,1.93,2.31,5.59Z"/>
  <path class="cls-1" d="M343.79,363.21c-.58.96.19,1.93,1.73,1.93,1.73,0,3.08-.96,3.08-1.93,0-1.16-.77-1.93-1.73-1.93-1.16,0-2.51.77-3.08,1.93Z"/>
  <path class="cls-1" d="M358.24,365.14c0,.96-1.35,1.35-2.89.77-1.54-.77-2.89-.19-2.89.96,0,.96,3.66,2.89,8.29,4.05,4.43,1.16,9.06,2.51,10.41,2.89,1.16.39,3.28-.58,4.43-2.12,2.12-2.31,1.35-2.7-4.63-2.7-4.43,0-7.52-.96-8.09-2.89-1.35-3.28-4.63-4.05-4.63-.96Z"/>
  <path class="cls-1" d="M336.46,201.7c-2.89.96-4.82,2.7-4.24,3.47,1.35,2.12,10.6-1.73,10.6-4.24,0-.77-.19-1.54-.39-1.35-.39,0-2.89.96-5.97,2.12Z"/>
  <path class="cls-1" d="M317.77,205.17c-2.7.58-4.82,2.12-4.82,3.28s-.77,2.89-1.54,3.85c-.96.77-1.35.58-.96-.39.39-1.16-.19-1.93-1.35-1.93-.96,0-1.73.77-1.35,1.73.39.96-1.16,1.16-3.47.58-2.51-.58-3.85,0-3.85,1.73,0,1.54.77,2.7,1.54,2.7,3.08,0,22.55-6.17,24.09-7.52,2.7-2.51-3.28-5.4-8.29-4.05Z"/>
  <path class="cls-1" d="M292.71,214.8c0,.96.96,1.93,1.93,1.93,1.16,0,1.93-.96,1.93-1.93,0-1.16-.77-1.93-1.93-1.93-.96,0-1.93.77-1.93,1.93Z"/>
  <path class="cls-1" d="M271.51,303.08c0,.96,1.35,1.73,2.89,1.73s2.31-.77,1.73-1.73c-.58-.77-1.73-1.54-2.89-1.54-.96,0-1.73.77-1.73,1.54Z"/>
  <path class="cls-1" d="M60.66,378.24c-.58.96.19,1.73,1.73,1.73s2.31-.77,1.73-1.73c-.58-.77-1.35-1.54-1.73-1.54s-1.16.77-1.73,1.54Z"/>
  <path class="cls-1" d="M356.32,249.5c0,.96,1.16,1.93,2.7,1.93s5.4,2.12,8.48,4.82c7.13,5.97,9.06,6.17,5.2.39-4.24-6.55-16.38-11.76-16.38-7.13Z"/>
  <path class="cls-1" d="M368.07,264.72c3.28,4.24,7.13,7.13,8.48,6.75,1.35-.58,3.66,1.93,5.59,5.97,1.93,3.66,4.05,6.36,5.2,5.78,1.73-1.16-1.35-8.48-6.75-15.42-1.93-2.31-2.89-2.89-3.08-1.35,0,1.54-2.7,0-5.97-3.28-8.48-8.48-10.79-7.32-3.47,1.54Z"/>
  <path class="cls-1" d="M376.75,276.29c-.77.96-.39,2.31.58,2.89.96.77,2.31.39,2.89-.58.77-.96.39-2.31-.58-2.89-.96-.77-2.31-.39-2.89.58Z"/>
  <path class="cls-1" d="M477.74,280.14c0,1.16.77,2.51,1.93,3.08s1.35-.19.77-1.73c-1.35-3.47-2.7-4.05-2.7-1.35Z"/>
  <path class="cls-1" d="M389.08,289.97c0,.96.96,1.93,1.93,1.93,1.16,0,1.93-.96,1.93-1.93,0-1.16-.77-1.93-1.93-1.93-.96,0-1.93.77-1.93,1.93Z"/>
  <path class="cls-1" d="M364.99,293.83c-.58,1.16.19,1.35,1.73.77,3.47-1.35,4.05-2.7,1.35-2.7-1.16,0-2.51.77-3.08,1.93Z"/>
  <path class="cls-1" d="M325.48,303.46c0,.96.58,1.93,1.54,1.93.77.19,5.01.96,9.64,1.73,10.41,2.12,12.34-.39,2.51-3.47-9.06-2.7-13.68-2.7-13.68-.19Z"/>
  <path class="cls-1" d="M337.04,310.79c0,1.54,23.51,10.41,24.67,9.25.39-.39-2.31-2.51-5.78-4.63-6.94-4.05-18.89-6.94-18.89-4.63Z"/>
  <path class="cls-1" d="M361.52,315.03c10.99,6.36,12.14,6.75,12.14,3.85,0-1.93-15.61-9.64-19.66-9.64-1.35,0,1.93,2.7,7.52,5.78Z"/>
  <path class="cls-1" d="M364.03,322.74c0,.96.96,1.93,1.93,1.93,1.16,0,1.93-.96,1.93-1.93,0-1.16-.77-1.93-1.93-1.93-.96,0-1.93.77-1.93,1.93Z"/>
  <path class="cls-1" d="M377.9,323.12c.96,2.89,5.4,4.43,5.4,1.93,0-.96-1.35-2.51-3.08-3.08-1.93-.77-2.7-.19-2.31,1.16Z"/>
  <path class="cls-1" d="M453.65,324.66c-1.93,2.12-3.08,4.24-2.7,4.82,1.35,1.16,9.44-4.63,9.44-6.94,0-2.89-3.08-1.93-6.75,2.12Z"/>
  <path class="cls-1" d="M372.31,331.41c0,1.54.77,2.31,1.73,1.73s1.16-1.93.58-2.89c-1.73-2.51-2.31-2.12-2.31,1.16Z"/>
  <path class="cls-1" d="M436.5,331.41c-1.73,5.01-1.35,6.17.96,2.31,1.16-1.93,1.73-4.05,1.16-4.43-.39-.58-1.35.39-2.12,2.12Z"/>
  <path class="cls-1" d="M442.86,335.46c-2.31,2.7-2.12,3.08.96,2.51,2.12-.39,4.05-1.93,4.63-3.28.96-3.28-2.51-2.89-5.59.77Z"/>
  <path class="cls-1" d="M416.07,339.89c0,2.12.77,4.24,1.73,4.82.77.58,1.16-1.16.58-3.66-.96-5.78-2.31-6.36-2.31-1.16Z"/>
  <path class="cls-1" d="M434.57,349.33c-2.89,4.43-4.63,9.06-3.85,10.22,1.35,2.51,10.79-13.3,9.83-16.38-.39-1.16-3.08,1.54-5.97,6.17Z"/>
  <path class="cls-1" d="M416.07,348.56c0,.39,1.54,1.93,3.47,3.28,2.89,2.51,3.08,2.31.58-.77-2.51-3.08-4.05-4.05-4.05-2.51Z"/>
  <path class="cls-1" d="M392.94,355.31c0,2.31,5.59,7.9,7.9,7.9,1.93,0,2.31-2.31.58-6.55-1.16-3.28-8.48-4.43-8.48-1.35Z"/>
  <path class="cls-1" d="M36.18,381.91c-2.51,3.08-2.31,3.28.77.77,3.08-2.51,4.05-4.05,2.51-4.05-.39,0-1.93,1.54-3.28,3.28Z"/>
</svg>